<svg id="Capa_1" enable-background="new 0 0 512 512" height="512" viewBox="0 0 512 512" width="512" xmlns="http://www.w3.org/2000/svg"><g><g><path d="m70 61.975c-33.137 0-60 26.863-60 60v328.05h120v-328.05c0-33.137-26.863-60-60-60z" fill="#f8e8e0"/><path d="m442 61.975c33.137 0 60 26.863 60 60v328.05h-120v-328.05c0-33.137 26.863-60 60-60z" fill="#f8e8e0"/><path d="m256 61.975c-33.137 0-60 26.863-60 60v328.05h120v-328.05c0-33.137-26.863-60-60-60z" fill="#f8e8e0"/><g fill="#e9baa1"><path d="m130 121.975h66v44h-66z"/><path d="m130 366.138h66v44h-66z"/><path d="m316 121.975h66v44h-66z" transform="matrix(-1 0 0 -1 698 287.95)"/><path d="m316 366.138h66v44h-66z" transform="matrix(-1 0 0 -1 698 776.276)"/><path d="m70 159.975c-8.837 0-16-7.163-16-16 0-8.837 7.163-16 16-16 8.837 0 16 7.163 16 16 0 8.836-7.163 16-16 16z"/><path d="m70 404.025c-8.837 0-16-7.163-16-16 0-8.837 7.163-16 16-16 8.837 0 16 7.163 16 16 0 8.837-7.163 16-16 16z"/><path d="m256 159.975c-8.837 0-16-7.163-16-16 0-8.837 7.163-16 16-16 8.837 0 16 7.163 16 16 0 8.836-7.163 16-16 16z"/><path d="m256 404.025c-8.837 0-16-7.163-16-16 0-8.837 7.163-16 16-16 8.837 0 16 7.163 16 16 0 8.837-7.163 16-16 16z"/><path d="m442 159.975c-8.837 0-16-7.163-16-16 0-8.837 7.163-16 16-16 8.837 0 16 7.163 16 16 0 8.836-7.163 16-16 16z"/><path d="m442 404.025c-8.837 0-16-7.163-16-16 0-8.837 7.163-16 16-16 8.837 0 16 7.163 16 16 0 8.837-7.163 16-16 16z"/></g></g><path d="m442 51.975c-35.202 0-64.406 26.123-69.274 60h-47.451c-4.869-33.877-34.073-60-69.274-60s-64.406 26.123-69.274 60h-47.451c-4.869-33.877-34.073-60-69.274-60-38.598 0-70 31.402-70 70v328.051c0 5.523 4.478 10 10 10h120c5.522 0 10-4.477 10-10v-29.887h46v29.887c0 5.523 4.478 10 10 10h120c5.522 0 10-4.477 10-10v-29.887h46v29.887c0 5.523 4.478 10 10 10h120c5.522 0 10-4.477 10-10v-328.051c-.002-38.599-31.404-70-70.002-70zm-116 124h46v180.164h-46zm46-20h-46v-24h46zm-232 20h46v180.164h-46zm46-20h-46v-24h46zm-66 284.05h-100v-318.05c0-27.57 22.43-50 50-50s50 22.43 50 50zm20-39.887v-24h46v24zm166 39.887h-100v-318.05c0-27.57 22.43-50 50-50s50 22.43 50 50zm20-39.887v-24h46v24zm166 39.887h-100v-318.05c0-27.57 22.43-50 50-50s50 22.43 50 50z" fill="#e1a282"/></g></svg>