<svg id="Capa_1" enable-background="new 0 0 512 512" height="512" viewBox="0 0 512 512" width="512" xmlns="http://www.w3.org/2000/svg"><g><g><path d="m393.44 244.973c1.849-25.008-6.762-50.644-25.885-69.767-31.315-31.315-80.092-34.49-114.972-9.566-17.678-22.957-45.421-37.762-76.637-37.762-53.402 0-96.692 43.291-96.692 96.692 0 5.565.574 10.984 1.477 16.292-39.144.5-70.731 32.346-70.731 71.607 0 39.573 32.081 71.653 71.654 71.653h287.71c39.573 0 71.653-32.08 71.653-71.653.001-31.125-19.85-57.604-47.577-67.496z" fill="#8fecba"/><path d="m289.471 383.995c-19.558 0-35.325-16.231-34.567-35.957.685-17.83 15.142-32.39 32.967-33.193 8.183-.369 15.773 2.108 21.867 6.525 3.073 2.227 7.318.02 7.284-3.775-.002-.203-.003-.406-.003-.609-.001-37.034 30.825-67.464 67.856-67.006 28.413.351 52.564 18.388 61.963 43.608 3.054-.643 6.219-.987 9.464-.987 25.238-.001 45.698 20.459 45.698 45.697s-20.459 45.697-45.697 45.697z" fill="#e6f5b6"/><g fill="#fff"><path d="m148.133 207.832c1.035 1.947 2.659 3.401 4.546 4.246-.99 1.84-1.386 4.008-.999 6.203.919 5.214 5.891 8.695 11.105 7.776 2.196-.387 4.098-1.502 5.489-3.062 1.444 1.511 3.384 2.558 5.592 2.868 5.243.737 10.09-2.916 10.827-8.159.31-2.208-.162-4.362-1.216-6.166 1.883-.907 3.479-2.428 4.456-4.432 2.321-4.758.345-10.497-4.414-12.818-2.004-.977-4.198-1.194-6.24-.749-.28-2.071-1.234-4.059-2.838-5.608-3.808-3.678-9.877-3.572-13.555.237-1.554 1.609-2.438 3.636-2.643 5.722-2.038-.356-4.199-.059-6.147.977-4.674 2.486-6.448 8.29-3.963 12.965z"/><path d="m80.433 306.968c1.035 1.947 2.659 3.401 4.546 4.246-.99 1.84-1.386 4.008-.999 6.203.919 5.214 5.891 8.695 11.105 7.776 2.196-.387 4.098-1.502 5.489-3.062 1.444 1.511 3.384 2.558 5.592 2.868 5.243.737 10.09-2.916 10.827-8.159.31-2.208-.162-4.362-1.216-6.166 1.883-.907 3.479-2.428 4.456-4.432 2.321-4.758.345-10.497-4.414-12.818-2.004-.977-4.198-1.194-6.24-.749-.28-2.071-1.234-4.059-2.838-5.608-3.808-3.678-9.877-3.572-13.555.237-1.554 1.609-2.438 3.636-2.643 5.722-2.038-.356-4.199-.059-6.147.977-4.674 2.486-6.448 8.291-3.963 12.965z"/><path d="m202.255 275.997c1.035 1.947 2.659 3.401 4.546 4.246-.99 1.84-1.386 4.008-.999 6.203.919 5.214 5.891 8.695 11.105 7.776 2.196-.387 4.098-1.502 5.489-3.062 1.444 1.511 3.384 2.558 5.592 2.868 5.243.737 10.09-2.916 10.827-8.159.31-2.208-.162-4.362-1.216-6.166 1.883-.907 3.479-2.428 4.456-4.432 2.321-4.758.345-10.497-4.414-12.818-2.004-.977-4.198-1.194-6.24-.749-.28-2.071-1.234-4.059-2.838-5.608-3.808-3.678-9.877-3.572-13.555.237-1.554 1.609-2.438 3.636-2.643 5.722-2.038-.356-4.199-.059-6.147.977-4.674 2.486-6.449 8.29-3.963 12.965z"/></g><path d="m318.112 205.589c-.307-3.037-2.734-5.464-5.771-5.771-8.91-.9-18.135 2.058-24.962 8.885s-9.785 16.052-8.885 24.962c.307 3.037 2.734 5.464 5.771 5.771 8.91.9 18.135-2.058 24.962-8.885 6.826-6.827 9.784-16.052 8.885-24.962z" fill="#ffdb85"/><path d="m189.717 343.366c3.19-.243 5.743-2.797 5.986-5.986.599-7.864-2.104-15.931-8.119-21.945-6.014-6.014-14.081-8.717-21.945-8.118-3.19.243-5.743 2.797-5.986 5.986-.599 7.864 2.104 15.931 8.119 21.945 6.014 6.013 14.081 8.716 21.945 8.118z" fill="#ffdb85"/></g><g fill="#45e08c"><path d="m456.303 282.6c-1.103 0-2.207.033-3.31.099-9.933-19.881-28.169-34.512-49.402-40.162 1.168-27.761-9.285-54.722-28.965-74.402-16.722-16.721-38.898-26.939-62.444-28.771-20.174-1.568-40.297 3.057-57.609 13.105-20.192-22.091-48.368-34.59-78.627-34.59-58.83 0-106.692 47.862-106.692 106.692 0 2.353.091 4.737.273 7.178-17.376 2.574-33.395 10.656-45.95 23.35-15.204 15.371-23.577 35.746-23.577 57.37 0 45.024 36.63 81.653 81.654 81.653l374.648-.127c30.712 0 55.697-24.986 55.697-55.698.001-30.711-24.984-55.697-55.696-55.697zm-203.948 91.522h-170.701c-33.996 0-61.654-27.658-61.654-61.653 0-33.542 27.301-61.179 60.858-61.607 2.923-.037 5.683-1.352 7.555-3.597 1.871-2.246 2.666-5.198 2.176-8.08-.899-5.281-1.336-10.062-1.336-14.615 0-47.802 38.89-86.692 86.692-86.692 27.097 0 52.142 12.343 68.715 33.863 3.284 4.266 9.356 5.165 13.736 2.035 15.087-10.78 33.636-15.919 52.233-14.473 18.796 1.462 36.501 9.622 49.854 22.974 15.308 15.307 23.627 36.138 23.184 57.705-20.117.096-39.122 7.992-53.643 22.333-12.8 12.643-20.639 28.832-22.549 46.267-6.239-2.768-13.048-4.048-20.055-3.729-22.955 1.035-41.627 19.834-42.51 42.799-.366 9.56 2.252 18.717 7.445 26.47zm203.948-.127h-114.046c1.786-3.72 1.147-8.312-1.936-11.396-3.905-3.904-10.236-3.906-14.142 0l-5.113 5.113c-1.752 1.752-2.712 3.993-2.892 6.283h-28.704c-6.748 0-13.042-2.679-17.724-7.543-4.678-4.861-7.111-11.264-6.852-18.03.487-12.657 10.776-23.018 23.426-23.588.387-.018.772-.026 1.157-.026 5.216 0 10.17 1.599 14.391 4.658 4.493 3.256 10.337 3.703 15.252 1.165 4.923-2.54 7.95-7.57 7.9-13.133l-.003-.513c0-15.212 6.059-29.574 17.061-40.44 11.007-10.872 25.474-16.746 40.672-16.567 23.369.29 44.555 15.199 52.717 37.101 1.728 4.638 6.583 7.312 11.432 6.293 2.433-.513 4.924-.772 7.403-.772 19.684 0 35.697 16.014 35.697 35.697s-16.013 35.698-35.696 35.698z"/><path d="m369.564 290.307-5.112 5.113c-3.905 3.905-3.905 10.237.001 14.142 1.952 1.953 4.511 2.929 7.07 2.929s5.119-.977 7.071-2.929l5.112-5.113c3.905-3.905 3.905-10.237-.001-14.142-3.903-3.906-10.236-3.906-14.141 0z"/><path d="m423.875 335.586c-3.906-3.905-10.236-3.905-14.143 0-3.905 3.905-3.905 10.237 0 14.143l2.675 2.675c1.953 1.953 4.512 2.929 7.071 2.929s5.118-.976 7.071-2.929c3.905-3.905 3.905-10.237 0-14.143z"/></g></g></svg>