<svg id="Capa_1" enable-background="new 0 0 512.001 512.001" height="512" viewBox="0 0 512.001 512.001" width="512" xmlns="http://www.w3.org/2000/svg"><g><g><g><g><path d="m482 273.167-295.355 52.182 52.181-295.356h243.174z" fill="#ffdb85"/><path d="m482 29.993v243.174l-121.587-121.587z" fill="#ffe4db"/><path d="m238.826 29.993-52.181 295.356 173.768-173.769z" fill="#ffdfe5"/><path d="m482 29.993h-243.174l121.587 121.587z" fill="#ffdb85"/><path d="m482 273.167-295.355 52.182 173.768-173.769z" fill="#e6f5b6"/></g></g><g><path d="m218.826 29.993c0-5.118 1.953-10.237 5.858-14.142 7.811-7.811 20.474-7.812 28.284-.001l243.174 243.174c7.811 7.811 7.811 20.476 0 28.284-7.811 7.811-20.474 7.812-28.284.001l-243.174-243.173c-3.906-3.905-5.858-9.024-5.858-14.143z" fill="#fff3d6"/></g><g><path d="m166.645 325.349c0-5.118 1.953-10.237 5.858-14.143l295.355-295.355c7.811-7.81 20.474-7.81 28.284 0 7.811 7.811 7.811 20.475 0 28.285l-295.355 295.355c-7.811 7.81-20.474 7.81-28.284 0-3.906-3.905-5.858-9.024-5.858-14.142z" fill="#fff3d6"/></g><g fill="#ffe7ae"><path d="m89.555 379.084-33.054-33.054c18.255-18.255 47.852-18.255 66.108 0z"/><path d="m89.555 379.084-33.054 33.054c18.255 18.255 47.852 18.255 66.108 0z"/></g></g><path d="m503.214 251.953-11.214-11.213v-178.319l11.214-11.214c11.697-11.697 11.697-30.73-.001-42.428-11.696-11.696-30.729-11.695-42.426 0l-11.213 11.213h-178.322l-11.213-11.212c-11.697-11.696-30.729-11.696-42.426 0-5.666 5.665-8.787 13.199-8.787 21.213s3.12 15.548 8.786 21.214l6.213 6.213-40.411 228.733-17.982 17.982c-5.666 5.667-8.787 13.201-8.787 21.214 0 4.552 1.01 8.949 2.919 12.938l-20.976 20.976c-7.696 7.695-17.602 12.082-27.89 12.822l18.983-18.983c1.875-1.875 2.929-4.419 2.929-7.071s-1.054-5.196-2.929-7.071c-22.127-22.124-58.125-22.124-80.25 0-3.905 3.905-3.905 10.237 0 14.143l10.052 10.052c-10.683.755-21.167 4.2-30.463 10.267-18.171 11.86-29.02 31.897-29.02 53.596v74.976c0 5.523 4.478 10 10 10s10-4.477 10-10v-74.976c0-14.918 7.459-28.693 19.952-36.848 9.299-6.07 20.325-8.325 30.986-6.61l-21.507 21.507c-3.905 3.905-3.905 10.237 0 14.142 11.063 11.063 25.592 16.593 40.125 16.593 14.529 0 29.063-5.533 40.125-16.593 1.875-1.875 2.929-4.419 2.929-7.071s-1.054-5.196-2.929-7.071l-13.445-13.445c13.49-1.853 26.321-8.044 36.495-18.218l20.989-20.988c4.075 1.941 8.5 2.918 12.926 2.918 7.683 0 15.365-2.924 21.214-8.771l17.984-17.984 228.731-40.411 6.213 6.213c5.849 5.848 13.53 8.772 21.213 8.772s15.364-2.924 21.213-8.772c5.667-5.665 8.788-13.199 8.788-21.213-.001-8.014-3.122-15.548-8.788-21.215zm-395.725 95.056-17.934 17.934-17.934-17.934c11.102-6.202 24.764-6.203 35.868 0zm-35.867 64.151 17.934-17.934 17.934 17.935c-11.102 6.202-24.766 6.202-35.868-.001zm400.378-190.42-69.159-69.159 69.159-69.16zm-42.426-180.747-69.161 69.161-69.161-69.161zm-197.819-17.07c3.898-3.9 10.243-3.899 14.142-.001l100.374 100.374-14.142 14.142-100.374-100.373c-1.889-1.888-2.929-4.399-2.929-7.071s1.04-5.183 2.929-7.071zm9.33 51.758 76.9 76.9-109.902 109.903zm-47.368 257.739c-3.9 3.898-10.244 3.899-14.143 0-1.89-1.889-2.93-4.4-2.93-7.071s1.04-5.183 2.93-7.072l295.355-295.355c1.95-1.949 4.511-2.924 7.072-2.924s5.121.975 7.07 2.924c3.899 3.899 3.899 10.244 0 14.143zm56.794-28.51 109.902-109.902 76.9 76.899zm238.56-23.672c-3.898 3.9-10.243 3.899-14.142.001l-100.373-100.374 14.143-14.143 100.373 100.373c1.889 1.889 2.93 4.4 2.93 7.071s-1.041 5.183-2.931 7.072z" fill="#ff5d7f"/></g></svg>