<svg id="Capa_1" enable-background="new 0 0 512.02 512.02" height="512" viewBox="0 0 512.02 512.02" width="512" xmlns="http://www.w3.org/2000/svg"><g><g><g><path id="XMLID_68_" d="m244.77 457.888h-81.995v-44.122h93.818z" fill="#dee9ef"/><g><g><path d="m364.98 293.188-60.146 12.271 37.81-10.881 18.329-228.144h-193.121l19.481 216.505c1.748 19.43-2.468 38.932-12.086 55.906-8.175 14.427-12.472 30.725-12.472 47.307v27.615h78.852 37.213 223.18v-8.673c0-72.252-66.247-126.348-137.04-111.906z" fill="#ffdb85"/><path d="m365.507 10.01h-202.732l5.077 56.424h193.122z" fill="#fff3d6"/></g><path d="m313.294 457.888h188.726v-44.121h-223.18z" fill="#dee9ef"/></g></g><g><path id="XMLID_65_" d="m91.995 502.01h-81.995v-44.122h93.818z" fill="#dee9ef"/><g><g><path d="m212.206 337.31-60.146 12.271 37.81-10.881 18.329-228.144h-193.122l19.481 216.505c1.748 19.43-2.468 38.932-12.086 55.906-8.175 14.426-12.472 30.725-12.472 47.306v27.615h78.852 37.213 223.18v-8.673c0-72.252-66.246-126.347-137.039-111.905z" fill="#ffdb85"/><path d="m212.732 54.132h-202.732l5.077 56.423h193.122z" fill="#fff3d6"/></g><path d="m160.519 502.01h188.726v-44.122h-223.18z" fill="#dee9ef"/></g></g></g><path d="m466.372 308.885c-29.009-23.689-66.694-32.98-103.391-25.495l-9.562 1.951 22.056-274.53c.224-2.782-.726-5.532-2.619-7.583s-4.557-3.218-7.349-3.218h-202.732c-2.808 0-5.487 1.181-7.381 3.253s-2.83 4.846-2.579 7.643l2.99 33.226h-145.805c-2.808 0-5.487 1.181-7.381 3.253-1.895 2.072-2.831 4.846-2.579 7.643l24.558 272.929c1.573 17.487-2.17 34.805-10.826 50.08-9.01 15.899-13.772 33.962-13.772 52.237v71.736c0 5.523 4.477 10 10 10h81.995c4.526 0 8.488-3.04 9.659-7.412l9.837-36.71h9.695l31.451 40.276c1.896 2.427 4.803 3.845 7.882 3.845h188.726c5.523 0 10-4.477 10-10v-34.122h142.775c5.523 0 10-4.477 10-10v-52.795c0-37.452-16.638-72.519-45.648-96.207zm-292.657-288.875h180.957l-21.652 269.493-30.185 6.158c-5.411 1.104-8.903 6.386-7.799 11.797 1.104 5.412 6.386 8.902 11.797 7.799l60.146-12.271c30.788-6.282 62.405 1.515 86.743 21.389 23.995 19.594 37.892 48.468 38.279 79.391h-141.33c-7.677-19.563-20.302-37.065-37.073-50.76-29.009-23.688-66.693-32.98-103.392-25.495l-9.562 1.951 22.056-274.53c.224-2.782-.726-5.532-2.619-7.583s-4.557-3.218-7.349-3.218h-36.847zm-142.543 367.887c10.67-18.829 15.285-40.176 13.346-61.732l-23.578-262.034h180.957l-21.651 269.493-30.185 6.158c-5.411 1.104-8.903 6.386-7.799 11.797 1.104 5.412 6.384 8.904 11.797 7.799l60.146-12.271c30.788-6.283 62.405 1.515 86.744 21.39 23.996 19.594 37.892 48.468 38.279 79.39h-319.228v-17.615c0-14.824 3.863-29.477 11.172-42.375zm53.15 104.113h-64.322v-24.122h70.786zm81.076 0-18.836-24.122h192.683v24.122zm193.829-44.122c-.086-8.192-.968-16.263-2.601-24.122h135.394v24.122z" fill="#ffaa64"/></g></svg>