<svg id="Capa_1" enable-background="new 0 0 512 512" height="512" viewBox="0 0 512 512" width="512" xmlns="http://www.w3.org/2000/svg"><g><path d="m153.296 10c-11.589 48.771-18.293 100.611-18.293 144.522 0 66.824 54.172 120.996 120.996 120.996s120.996-54.172 120.996-120.996c0-43.911-6.704-95.751-18.292-144.522z" fill="#ffdfe5"/><g><path d="m278.778 275.518v137.839c0 16.225 10.338 30.647 25.703 35.858l71.535 24.261c-11.76 17.809-31.676 28.524-53.019 28.524h-66.997-66.997c-21.342 0-41.258-10.715-53.019-28.524l71.535-24.261c15.365-5.211 25.703-19.633 25.703-35.858v-137.839z" fill="#ffdfe5"/></g><path d="m169.179 152.199c-.001.22-.003.44-.003.66-.213 48.153 38.832 88.579 86.985 88.492 47.803-.087 86.668-39.005 86.668-86.829 0-.767-.002-1.537-.007-2.309-.032-5.225-4.275-9.453-9.5-9.453h-154.643c-5.221-.001-9.468 4.219-9.5 9.439z" fill="#ff9eb2"/><path d="m379.229 464.005-71.535-24.26c-11.313-3.837-18.915-14.441-18.915-26.388v-131.992c56.421-14.589 98.218-65.927 98.218-126.844 0-44.307-6.593-96.453-18.562-146.833-1.073-4.506-5.098-7.688-9.731-7.688h-205.408c-4.632 0-8.658 3.181-9.729 7.688-11.971 50.378-18.563 102.524-18.563 146.834 0 60.917 41.797 112.254 98.218 126.844v131.992c0 11.947-7.601 22.551-18.915 26.388l-71.535 24.261c-2.936.996-5.244 3.296-6.248 6.229-1.005 2.933-.593 6.165 1.115 8.752 13.651 20.671 36.591 33.012 61.363 33.012h133.995c24.773 0 47.713-12.342 61.364-33.014 1.708-2.587 2.12-5.82 1.115-8.752-1.004-2.932-3.312-5.233-6.247-6.229zm-234.225-309.483c0-40.56 5.748-88.039 16.241-134.522h189.511c10.492 46.486 16.24 93.965 16.24 134.522 0 61.204-49.793 110.996-110.996 110.996-61.204 0-110.996-49.792-110.996-110.996zm177.993 337.478h-133.995c-13.451 0-26.158-4.997-35.872-13.78l57.6-19.534c19.435-6.591 32.492-24.807 32.492-45.328v-128.464c4.206.409 8.467.625 12.778.625s8.573-.215 12.778-.625v128.464c0 20.521 13.058 38.737 32.491 45.328l57.6 19.535c-9.714 8.783-22.421 13.779-35.872 13.779z" fill="#ff5d7f"/></g></svg>