<svg id="Capa_1" enable-background="new 0 0 512.001 512.001" height="512" viewBox="0 0 512.001 512.001" width="512" xmlns="http://www.w3.org/2000/svg"><g><g fill="#fff3d6"><ellipse cx="133.381" cy="133.381" rx="42.817" ry="81.267" transform="matrix(.707 -.707 .707 .707 -55.248 133.381)"/><ellipse cx="378.62" cy="378.621" rx="42.817" ry="81.267" transform="matrix(.707 -.707 .707 .707 -156.83 378.621)"/><ellipse cx="378.62" cy="133.381" rx="81.267" ry="42.817" transform="matrix(.707 -.707 .707 .707 16.581 306.791)"/><ellipse cx="133.381" cy="378.621" rx="81.267" ry="42.817" transform="matrix(.707 -.707 .707 .707 -228.659 205.21)"/><ellipse cx="88.499" cy="211.119" rx="42.817" ry="81.267" transform="matrix(.259 -.966 .966 .259 -138.332 241.961)"/><ellipse cx="423.502" cy="300.883" rx="42.817" ry="81.267" transform="matrix(.259 -.966 .966 .259 23.262 632.081)"/><ellipse cx="300.883" cy="88.499" rx="81.267" ry="42.817" transform="matrix(.259 -.966 .966 .259 137.525 356.224)"/><ellipse cx="211.119" cy="423.503" rx="81.267" ry="42.817" transform="matrix(.259 -.966 .966 .259 -252.595 517.817)"/><ellipse cx="88.499" cy="300.883" rx="81.267" ry="42.817" transform="matrix(.966 -.259 .259 .966 -74.859 33.158)"/><ellipse cx="423.502" cy="211.119" rx="81.267" ry="42.817" transform="matrix(.966 -.259 .259 .966 -40.211 116.805)"/><ellipse cx="211.119" cy="88.499" rx="42.817" ry="81.267" transform="matrix(.966 -.259 .259 .966 -15.712 57.657)"/><ellipse cx="300.883" cy="423.503" rx="42.817" ry="81.267" transform="matrix(.966 -.259 .259 .966 -99.358 92.305)"/></g><g fill="#ffdb85"><ellipse cx="256.001" cy="88.499" rx="41.358" ry="78.498"/><ellipse cx="256.001" cy="423.503" rx="41.358" ry="78.498"/><ellipse cx="423.502" cy="256.001" rx="78.498" ry="41.358"/><ellipse cx="88.499" cy="256.001" rx="78.498" ry="41.358"/><ellipse cx="172.25" cy="110.94" rx="41.358" ry="78.498" transform="matrix(.866 -.5 .5 .866 -32.393 100.988)"/><ellipse cx="339.752" cy="401.062" rx="41.358" ry="78.498" transform="matrix(.866 -.5 .5 .866 -155.013 223.608)"/><ellipse cx="401.061" cy="172.25" rx="78.498" ry="41.358" transform="matrix(.866 -.5 .5 .866 -32.393 223.608)"/><ellipse cx="110.94" cy="339.752" rx="78.498" ry="41.358" transform="matrix(.866 -.5 .5 .866 -155.013 100.988)"/><ellipse cx="110.94" cy="172.25" rx="41.358" ry="78.498" transform="matrix(.5 -.866 .866 .5 -93.703 182.202)"/><ellipse cx="401.061" cy="339.752" rx="41.358" ry="78.498" transform="matrix(.5 -.866 .866 .5 -93.703 517.206)"/><ellipse cx="339.752" cy="110.94" rx="78.498" ry="41.358" transform="matrix(.5 -.866 .866 .5 73.799 349.703)"/><ellipse cx="172.25" cy="401.062" rx="78.498" ry="41.358" transform="matrix(.5 -.866 .866 .5 -261.205 349.704)"/></g><g><circle cx="256.001" cy="256.001" fill="#ffdfe5" r="142.62"/></g><g fill="#ff9eb2"><circle cx="256.128" cy="171.916" r="16.33"/><circle cx="256.128" cy="340.34" r="16.33"/><circle cx="195.252" cy="198.312" r="16.33"/><circle cx="195.252" cy="313.944" r="16.33"/><circle cx="171.915" cy="256.128" r="16.33"/><circle cx="317.003" cy="198.312" r="16.33"/><circle cx="317.003" cy="313.944" r="16.33"/><circle cx="340.34" cy="256.128" r="16.33"/><circle cx="226.673" cy="263.514" r="16.33"/><circle cx="280.003" cy="281.024" r="16.33"/><circle cx="265.528" cy="229.096" r="16.33"/></g><path d="m490.649 283.12c7.4-6.139 14.014-13.332 19.595-21.458 2.343-3.411 2.343-7.912 0-11.323-5.58-8.125-12.193-15.317-19.591-21.455 9.067-10.367 16.175-22.457 20.776-35.464 1.38-3.901.215-8.249-2.931-10.937-10.488-8.963-22.688-15.88-35.724-20.324 3.338-9.015 5.469-18.55 6.239-28.377.323-4.125-1.928-8.023-5.662-9.806-8.896-4.247-18.219-7.169-27.698-8.786 2.671-13.511 2.786-27.522.265-41.099-.755-4.068-3.938-7.251-8.007-8.007-13.572-2.519-27.589-2.407-41.1.263-1.616-9.478-4.539-18.801-8.785-27.697-1.782-3.733-5.664-5.988-9.806-5.661-9.828.77-19.364 2.901-28.381 6.241-4.443-13.037-11.351-25.23-20.322-35.726-2.688-3.146-7.036-4.312-10.937-2.93-13.017 4.605-25.094 11.71-35.46 20.779-6.139-7.4-13.332-14.014-21.458-19.595-3.41-2.343-7.912-2.343-11.322 0-8.126 5.581-15.319 12.195-21.458 19.595-10.366-9.069-22.443-16.174-35.46-20.779-3.902-1.381-8.249-.215-10.937 2.93-8.972 10.496-15.88 22.689-20.322 35.726-9.017-3.339-18.553-5.47-28.381-6.241-4.131-.327-8.023 1.928-9.806 5.661-4.247 8.896-7.169 18.219-8.785 27.697-13.512-2.67-27.53-2.784-41.1-.263-4.068.755-7.252 3.938-8.007 8.007-2.521 13.578-2.406 27.588.265 41.099-9.478 1.617-18.802 4.539-27.698 8.786-3.734 1.783-5.985 5.681-5.662 9.806.77 9.826 2.9 19.361 6.239 28.377-13.036 4.444-25.236 11.362-35.724 20.324-3.146 2.688-4.311 7.036-2.931 10.937 4.601 13.007 11.708 25.097 20.776 35.464-7.399 6.138-14.011 13.33-19.591 21.455-2.343 3.411-2.343 7.912 0 11.323 5.581 8.126 12.195 15.319 19.595 21.458-9.069 10.366-16.173 22.442-20.779 35.461-1.38 3.901-.215 8.249 2.931 10.937 10.488 8.963 22.688 15.881 35.724 20.325-3.338 9.015-5.469 18.55-6.239 28.376-.323 4.125 1.928 8.023 5.662 9.806 8.896 4.247 18.219 7.169 27.697 8.786-2.67 13.511-2.784 27.527-.265 41.1.755 4.068 3.938 7.251 8.007 8.007 6.553 1.217 13.211 1.822 19.867 1.822 7.126 0 14.246-.71 21.232-2.09 1.616 9.479 4.539 18.805 8.786 27.703 1.669 3.496 5.193 5.692 9.021 5.692.26 0 .521-.01.784-.031 9.828-.77 19.364-2.901 28.381-6.241 4.443 13.037 11.352 25.23 20.322 35.726 1.936 2.265 4.732 3.503 7.604 3.503 1.115 0 2.242-.187 3.333-.573 13.014-4.604 25.095-11.709 35.461-20.778 6.139 7.4 13.332 14.013 21.458 19.594 1.705 1.171 3.684 1.757 5.661 1.757s3.956-.585 5.661-1.757c8.126-5.581 15.319-12.194 21.458-19.594 10.366 9.068 22.448 16.174 35.461 20.778 1.092.386 2.218.573 3.333.573 2.871 0 5.668-1.238 7.604-3.503 8.97-10.496 15.878-22.689 20.322-35.726 9.017 3.339 18.553 5.47 28.381 6.241.263.021.524.031.784.031 3.828 0 7.353-2.196 9.021-5.692 4.247-8.898 7.17-18.223 8.786-27.703 6.986 1.38 14.106 2.09 21.232 2.09 6.655 0 13.315-.605 19.867-1.822 4.068-.755 7.252-3.938 8.007-8.007 2.52-13.573 2.406-27.589-.265-41.1 9.478-1.617 18.802-4.539 27.697-8.785 3.734-1.783 5.985-5.681 5.662-9.806-.77-9.826-2.9-19.361-6.239-28.376 13.035-4.444 25.236-11.363 35.724-20.325 3.146-2.688 4.311-7.036 2.931-10.937-4.606-13.02-11.71-25.095-20.779-35.462zm-234.648 105.501c-73.127 0-132.62-59.493-132.62-132.62s59.493-132.62 132.62-132.62 132.62 59.493 132.62 132.62-59.493 132.62-132.62 132.62zm-233.515-132.62c16.12-19.755 40.309-31.358 66.013-31.358 6.003 0 11.944.636 17.752 1.867-1.876 9.545-2.87 19.404-2.87 29.491s.994 19.946 2.87 29.491c-5.807 1.231-11.747 1.867-17.752 1.867-25.704 0-49.893-11.603-66.013-31.358zm401.017 31.358c-6.005 0-11.945-.636-17.752-1.867 1.876-9.545 2.87-19.404 2.87-29.491s-.994-19.946-2.87-29.491c5.808-1.231 11.749-1.867 17.752-1.867 25.704 0 49.893 11.603 66.013 31.358-16.121 19.755-40.309 31.358-66.013 31.358zm66.447-94.045c-3.97 8.887-9.415 17.096-16.016 24.229-9.999-5.468-20.875-9.307-32.224-11.303 8.831-7.403 16.329-16.165 22.255-25.9 9.284 2.876 18.103 7.262 25.985 12.974zm-73.209 6.093c-5.199 3.001-10.663 5.421-16.307 7.259-6.494-18.96-16.624-36.245-29.552-51.025 4.43-3.992 9.277-7.532 14.5-10.548 22.261-12.852 49.01-14.897 72.848-5.849-4.082 25.168-19.228 47.311-41.489 60.163zm10.523-114.669c1.007 9.684.419 19.511-1.733 28.99-11.402.262-22.748 2.375-33.582 6.324 3.946-10.825 6.059-22.162 6.323-33.555 9.48-2.151 19.307-2.765 28.992-1.759zm-60.355 41.881c-3.017 5.225-6.556 10.072-10.547 14.5-14.78-12.928-32.066-23.058-51.025-29.552 1.837-5.644 4.256-11.106 7.258-16.306 12.852-22.261 34.995-37.407 60.163-41.49 9.049 23.838 7.003 50.587-5.849 72.848zm-48.222-104.568c5.715 7.884 10.095 16.701 12.971 25.988-9.733 5.926-18.495 13.424-25.897 22.254-1.995-11.348-5.834-22.222-11.301-32.221 7.136-6.606 15.337-12.051 24.227-16.021zm-62.686.435c19.755 16.119 31.358 40.308 31.358 66.013 0 6.003-.636 11.944-1.867 17.752-9.545-1.876-19.404-2.87-29.491-2.87-10.088 0-19.948.994-29.494 2.871-1.231-5.808-1.864-11.752-1.864-17.752-.001-25.706 11.603-49.895 31.358-66.014zm-62.687-.435c8.89 3.971 17.092 9.416 24.227 16.02-5.467 9.999-9.305 20.873-11.301 32.221-7.402-8.83-16.164-16.328-25.897-22.254 2.876-9.287 7.256-18.103 12.971-25.987zm-54.07 31.72c25.168 4.083 47.311 19.229 60.163 41.49 3.002 5.2 5.421 10.662 7.258 16.306-18.96 6.494-36.245 16.624-51.025 29.552-3.991-4.429-7.53-9.275-10.547-14.5-12.853-22.261-14.899-49.01-5.849-72.848zm-54.507 30.967c9.682-1.007 19.512-.393 28.992 1.759.265 11.392 2.377 22.729 6.323 33.555-10.834-3.949-22.18-6.062-33.582-6.324-2.152-9.479-2.74-19.307-1.733-28.99zm41.882 60.355c5.224 3.016 10.071 6.556 14.5 10.548-12.928 14.78-23.058 32.066-29.552 51.025-5.644-1.838-11.108-4.257-16.307-7.259-22.26-12.852-37.407-34.995-41.489-60.163 23.836-9.048 50.587-7.003 72.848 5.849zm-104.568 48.221c7.882-5.712 16.701-10.098 25.984-12.974 5.926 9.735 13.425 18.497 22.255 25.9-11.349 1.996-22.224 5.835-32.224 11.303-6.6-7.133-12.045-15.342-16.015-24.229zm0 125.373c3.971-8.892 9.416-17.092 16.02-24.227 9.998 5.467 20.873 9.305 32.22 11.301-8.831 7.403-16.33 16.166-22.256 25.9-9.283-2.875-18.103-7.262-25.984-12.974zm73.209-6.092c5.197-3 10.661-5.424 16.306-7.262 6.494 18.961 16.624 36.248 29.553 51.029-4.43 3.992-9.278 7.532-14.501 10.547-22.26 12.853-49.009 14.898-72.848 5.849 4.083-25.168 19.23-47.311 41.49-60.163zm-10.523 114.669c-1.006-9.685-.392-19.511 1.76-28.99 11.392-.265 22.729-2.379 33.555-6.325-3.946 10.826-6.059 22.164-6.324 33.557-9.477 2.151-19.306 2.763-28.991 1.758zm60.355-41.882c3.016-5.223 6.556-10.07 10.548-14.5 14.78 12.928 32.066 23.058 51.025 29.552-1.838 5.644-4.257 11.107-7.259 16.306-12.853 22.261-34.995 37.407-60.163 41.49-9.049-23.837-7.003-50.587 5.849-72.848zm48.222 104.569c-5.714-7.884-10.095-16.701-12.971-25.987 9.734-5.926 18.495-13.424 25.897-22.254 1.996 11.348 5.834 22.223 11.301 32.221-7.134 6.604-15.337 12.05-24.227 16.02zm62.687-.435c-19.755-16.119-31.358-40.308-31.358-66.013 0-6 .632-11.945 1.863-17.752 9.547 1.877 19.406 2.871 29.495 2.871 10.087 0 19.945-.994 29.491-2.87 1.231 5.808 1.868 11.749 1.868 17.751-.001 25.705-11.604 49.893-31.359 66.013zm62.686.435c-8.89-3.97-17.093-9.416-24.227-16.02 5.467-9.999 9.305-20.874 11.301-32.222 7.402 8.83 16.164 16.328 25.897 22.254-2.876 9.287-7.256 18.104-12.971 25.988zm54.071-31.721c-25.168-4.083-47.311-19.229-60.163-41.49-3.002-5.198-5.421-10.662-7.259-16.306 18.96-6.494 36.245-16.624 51.025-29.552 3.992 4.43 7.532 9.276 10.548 14.5 12.852 22.261 14.898 49.011 5.849 72.848zm54.506-30.966c-9.685 1.005-19.514.393-28.992-1.758-.265-11.393-2.377-22.73-6.324-33.557 10.825 3.946 22.161 6.06 33.555 6.325 2.153 9.479 2.767 19.306 1.761 28.99zm-41.881-60.355c-5.223-3.015-10.07-6.555-14.5-10.547 12.929-14.781 23.059-32.068 29.553-51.029 5.645 1.838 11.109 4.261 16.306 7.262 22.261 12.853 37.407 34.995 41.489 60.164-23.838 9.048-50.587 7.003-72.848-5.85zm78.583-35.247c-5.926-9.735-13.425-18.498-22.256-25.9 11.348-1.996 22.222-5.834 32.22-11.301 6.605 7.134 12.05 15.334 16.02 24.227-7.88 5.711-16.701 10.098-25.984 12.974z" fill="#ffaa64"/></g></svg>