<svg id="Capa_1" enable-background="new 0 0 512 512" height="512" viewBox="0 0 512 512" width="512" xmlns="http://www.w3.org/2000/svg"><g><g><path d="m232.706 135.538c0-48.347 31.396-89.5 74.871-104.139 17.202-5.792 34.975 7.252 34.975 25.403 0 12.502-8.686 23.283-20.876 26.059-26.107 5.947-44.971 23.663-44.971 52.677z" fill="#e9baa1"/></g><ellipse cx="115.685" cy="306.978" fill="#ffad93" rx="105.685" ry="155.958"/><ellipse cx="192.365" cy="306.978" fill="#ffe4db" rx="106.082" ry="167.522"/><ellipse cx="396.315" cy="306.978" fill="#ffad93" rx="105.685" ry="155.958"/><ellipse cx="319.635" cy="306.978" fill="#ffe4db" rx="106.082" ry="167.522"/><ellipse cx="256" cy="306.978" fill="#ffad93" rx="88.478" ry="175.03"/><path d="m242.066 309.357c0-28.91 4.28-56.361 11.963-81.084 3.599-11.582-12.128-19.112-18.879-9.037-15.58 23.25-25.182 55.05-25.182 90.121s9.602 66.871 25.182 90.121c6.751 10.075 22.479 2.545 18.879-9.037-7.683-24.723-11.963-52.174-11.963-81.084z" fill="#fff"/><path d="m479.324 191.089c-21.88-32.288-51.36-50.069-83.009-50.069-9.365 0-18.641 1.599-27.642 4.732-15.105-10.668-31.739-16.295-49.037-16.295-9.291 0-18.496 1.66-27.429 4.922-1.739-1.256-3.501-2.417-5.282-3.487 1.21-13.101 8.227-31.732 36.974-38.28 16.872-3.843 28.655-18.569 28.655-35.81 0-11.822-5.739-23.003-15.353-29.91-9.648-6.932-21.609-8.743-32.814-4.97-47.84 16.109-80.287 60.228-81.617 110.414-1.001.653-1.995 1.334-2.982 2.047-8.932-3.261-18.133-4.926-27.423-4.926-17.295 0-33.926 5.624-49.028 16.289-9.004-3.134-18.285-4.726-27.651-4.726-31.649 0-61.129 17.782-83.009 50.069-21.073 31.095-32.677 72.252-32.677 115.889s11.604 84.794 32.676 115.889c21.88 32.288 51.36 50.069 83.009 50.069 9.365 0 18.646-1.591 27.651-4.726 15.103 10.665 31.734 16.289 49.029 16.289 9.291 0 18.492-1.665 27.423-4.926 11.301 8.162 23.522 12.435 36.212 12.435 12.693 0 24.915-4.274 36.218-12.439 8.93 3.26 18.127 4.93 27.418 4.93 17.298 0 33.932-5.627 49.038-16.295 9.002 3.133 18.277 4.732 27.642 4.732 31.649 0 61.129-17.782 83.009-50.069 21.071-31.095 32.675-72.252 32.675-115.889s-11.604-84.794-32.676-115.889zm-168.555-150.213c5.027-1.693 10.408-.87 14.762 2.258 4.462 3.206 7.022 8.188 7.022 13.667 0 7.846-5.386 14.552-13.097 16.309-28.563 6.506-47.161 24.844-51.672 50.097-3.873-.827-7.805-1.26-11.784-1.26-4.241 0-8.43.48-12.55 1.419 4.62-37.799 30.505-70.094 67.319-82.49zm-261.536 370.772c-18.851-27.819-29.233-64.991-29.233-104.67s10.382-76.851 29.233-104.669c18.043-26.625 41.643-41.289 66.453-41.289 3.195 0 6.382.252 9.549.739-5.806 6.286-11.275 13.431-16.329 21.414-21.037 33.221-32.622 77.189-32.622 123.806s11.585 90.585 32.622 123.806c5.055 7.982 10.523 15.127 16.329 21.414-3.166.487-6.353.739-9.549.739-24.81-.001-48.41-14.665-66.453-41.29zm76.569 8.436c-19.036-30.061-29.519-70.229-29.519-113.105s10.483-83.045 29.519-113.105c18.138-28.642 41.777-44.416 66.563-44.416 3.497 0 6.984.336 10.447.964-6.63 7.899-12.774 17.35-18.3 28.281-17.405 34.431-26.99 79.987-26.99 128.276s9.585 93.846 26.99 128.276c5.526 10.931 11.67 20.383 18.3 28.281-3.463.628-6.95.964-10.447.964-24.786 0-48.426-15.774-66.563-44.416zm51.719-113.106c0-89.456 35.939-165.03 78.479-165.03s78.479 75.575 78.479 165.03-35.939 165.03-78.479 165.03-78.479-75.574-78.479-165.03zm131.667 156.558c6.63-7.899 12.774-17.35 18.3-28.281 17.405-34.431 26.99-79.987 26.99-128.276s-9.585-93.846-26.99-128.276c-5.526-10.931-11.67-20.383-18.3-28.281 3.463-.628 6.95-.964 10.447-.964 24.786 0 48.425 15.774 66.563 44.416 19.036 30.061 29.519 70.229 29.519 113.105s-10.483 83.045-29.519 113.105c-18.138 28.642-41.777 44.416-66.563 44.416-3.497 0-6.984-.336-10.447-.964zm153.579-51.888c-18.043 26.625-41.643 41.289-66.453 41.289-3.197 0-6.384-.249-9.551-.736 5.807-6.287 11.277-13.433 16.332-21.416 21.037-33.221 32.622-77.189 32.622-123.806s-11.585-90.585-32.622-123.806c-5.055-7.983-10.525-15.129-16.332-21.416 3.167-.487 6.354-.737 9.551-.737 24.81 0 48.41 14.664 66.453 41.289 18.851 27.818 29.233 64.99 29.233 104.669s-10.382 76.851-29.233 104.67z" fill="#ff926f"/></g></svg>