<svg id="Capa_1" enable-background="new 0 0 512.017 512.017" height="512" viewBox="0 0 512.017 512.017" width="512" xmlns="http://www.w3.org/2000/svg"><g><path d="m291.617 463.461 4.036 38.555-23.231-6.413-16.414 6.413-16.413-6.413-23.231 6.413 4.036-38.555 35.608-10.512z" fill="#f8e8e0"/><g><path d="m236.358 111.324c0-46.413 30.14-85.919 71.876-99.972 16.513-5.561 33.576 6.962 33.576 24.386 0 12.002-8.338 22.351-20.041 25.017-25.063 5.709-43.171 22.716-43.171 50.57h-42.24z" fill="#f8e8e0"/></g><path d="m344.092 192.869-.027-.515c-2.469-46.639-41.005-83.189-87.709-83.189-46.704 0-85.24 36.55-87.709 83.189-1.824 34.463-19.247 66.176-47.256 86.338-26.603 19.149-43.925 50.381-43.925 85.662-.001 58.114 47.48 105.547 105.594 105.489 22.168-.022 42.733-6.883 59.702-18.586 7.979-5.502 18.519-5.502 26.497 0 16.909 11.661 37.389 18.515 59.466 18.585 57.635.183 105.83-47.852 105.829-105.487 0-35.171-17.213-66.321-43.674-85.487-27.786-20.125-44.975-51.739-46.788-85.999z" fill="#8fecba"/><path d="m396.745 270.769c-25.452-18.436-41.004-47.021-42.667-78.429v-.001l-.027-.514c-2.146-40.53-28.73-74.209-65.017-87.064 3.122-23.398 22.812-31.491 34.956-34.256 16.38-3.731 27.819-18.028 27.819-34.767 0-11.478-5.572-22.333-14.905-29.038-9.367-6.729-20.979-8.489-31.862-4.825-44.66 15.038-75.393 55.417-78.417 101.899-37.786 12.041-65.761 46.432-67.965 88.052-1.669 31.526-17.382 60.229-43.111 78.75-30.107 21.672-48.083 56.729-48.084 93.778-.001 30.779 12.052 59.77 33.936 81.632 21.857 21.837 50.813 33.858 81.553 33.857h.116c8.79-.009 17.456-1.001 25.87-2.934l-2.52 24.066c-.345 3.288.959 6.534 3.481 8.671s5.938 2.891 9.125 2.01l20.027-5.529 13.316 5.204c2.34.914 4.939.914 7.279 0l13.316-5.204 20.027 5.529c.878.242 1.771.36 2.66.36 2.34 0 4.637-.821 6.465-2.37 2.522-2.137 3.826-5.383 3.481-8.671l-2.52-24.07c8.332 1.915 16.911 2.91 25.613 2.938h.366c30.419 0 59.266-12.061 81.258-33.983 22.079-22.009 34.238-50.955 34.238-81.505 0-36.918-17.872-71.903-47.807-93.586zm-85.321-249.941c4.701-1.583 9.737-.814 13.811 2.114 4.178 3.002 6.574 7.666 6.574 12.795 0 7.344-5.042 13.622-12.261 15.266-27.833 6.339-45.877 24.312-50.03 49.048-4.308-.58-8.701-.886-13.164-.886-3.127 0-6.22.151-9.274.438 4.446-36.099 29.179-66.934 64.344-78.775zm-27.243 467.647-9.099-2.512c-2.079-.574-4.289-.459-6.301.325l-12.773 4.991-12.773-4.991c-2.012-.785-4.221-.899-6.301-.325l-9.099 2.512 1.939-18.523c6.488-2.883 12.734-6.375 18.662-10.463 4.527-3.123 10.614-3.124 15.144 0 5.928 4.088 12.173 7.58 18.661 10.463zm112.014-56.78c-18.217 18.159-42.049 28.148-67.14 28.148-.1 0-.2 0-.3 0-19.346-.062-37.956-5.877-53.82-16.817-5.66-3.904-12.294-5.855-18.927-5.855s-13.267 1.952-18.927 5.855c-15.925 10.983-34.609 16.799-54.033 16.818-.033 0-.064 0-.097 0-25.398 0-49.338-9.944-67.418-28.006-18.102-18.084-28.07-42.05-28.07-67.483.001-30.633 14.867-59.623 39.768-77.546 30.675-22.08 49.409-56.314 51.4-93.925 2.188-41.337 36.329-73.718 77.724-73.718s75.535 32.38 77.723 73.719l.027.514c1.984 37.469 20.54 71.573 50.907 93.569 24.759 17.933 39.54 46.863 39.541 77.389 0 25.194-10.071 49.109-28.358 67.338z" fill="#45e08c"/></g></svg>