<svg id="Capa_1" enable-background="new 0 0 512 512" height="512" viewBox="0 0 512 512" width="512" xmlns="http://www.w3.org/2000/svg"><g><path d="m256.127 502c-68.721 0-118.357-65.746-99.532-131.839l42.002-147.468h115.061l42.002 147.468c18.824 66.093-30.812 131.839-99.533 131.839z" fill="#fff3d6"/><path d="m401.943 239.151c49.639 0 82.883-51.501 61.953-96.511-36.425-78.332-115.819-132.64-207.896-132.64s-171.471 54.308-207.896 132.639c-20.93 45.01 12.314 96.511 61.953 96.511h291.886z" fill="#ff9eb2"/><g fill="#fff"><circle cx="234.349" cy="165.901" r="21.651"/><circle cx="113.531" cy="172.072" r="18.087"/><circle cx="286.492" cy="77.26" r="18.087"/><circle cx="356.444" cy="149.842" r="37.711"/><circle cx="181.907" cy="100.919" r="27.081"/></g><path d="m472.963 138.423c-18.952-40.755-48.929-75.286-86.691-99.859-38.77-25.229-83.817-38.564-130.272-38.564s-91.502 13.335-130.272 38.563c-37.762 24.573-67.74 59.104-86.691 99.859-11.225 24.138-9.353 51.991 5.007 74.506 14.466 22.681 39.144 36.222 66.013 36.222h70.605l-33.686 118.271c-9.839 34.546-3.069 70.801 18.573 99.469 21.644 28.668 54.658 45.11 90.578 45.11s68.934-16.442 90.577-45.109c21.643-28.668 28.412-64.923 18.573-99.469l-33.686-118.271h70.352c26.869 0 51.547-13.541 66.013-36.222 14.36-22.515 16.232-50.368 5.007-74.506zm-126.921 234.477c8.105 28.458 2.529 58.324-15.3 81.939-17.829 23.617-45.025 37.161-74.615 37.161s-56.786-13.544-74.615-37.16-23.405-53.481-15.3-81.939l35.246-123.75h109.337zm105.052-170.726c-10.774 16.892-29.148 26.977-49.151 26.977h-291.886c-20.003 0-38.377-10.084-49.151-26.977-10.668-16.726-12.064-37.406-3.734-55.319 17.37-37.352 44.848-69.002 79.465-91.529 35.515-23.11 76.791-35.326 119.363-35.326s83.848 12.216 119.363 35.327c34.617 22.526 62.096 54.177 79.465 91.529 8.33 17.913 6.934 38.592-3.734 55.318z" fill="#ff5d7f"/></g></svg>