<svg id="Capa_1" enable-background="new 0 0 512.017 512.017" height="512" viewBox="0 0 512.017 512.017" width="512" xmlns="http://www.w3.org/2000/svg"><g><g><path d="m236.358 111.324c0-46.413 30.14-85.919 71.876-99.972 16.513-5.561 33.576 6.962 33.576 24.386 0 12.002-8.338 22.351-20.041 25.017-25.063 5.709-43.171 22.716-43.171 50.57h-42.24z" fill="#f8e8e0"/></g><path d="m256.009 251.059c38.679 0 76.84 2.215 114.365 6.523 42.639 4.895 70.198-44.227 43.6-77.911-36.84-46.654-93.903-76.598-157.965-76.598s-121.125 29.944-157.965 76.598c-26.598 33.684.961 82.806 43.6 77.911 37.525-4.308 75.686-6.523 114.365-6.523z" fill="#e9baa1"/><path d="m387.53 257.921v74.478c0 65.859-41.88 124.429-104.201 145.726l-5.688 10.823c-9.158 17.425-34.106 17.425-43.265 0l-5.688-10.823c-62.321-21.297-104.201-79.867-104.201-145.726v-74.478z" fill="#ffdb85"/><path d="m421.822 173.474c-32.955-41.734-79.314-68.921-130.628-77.486 6.312-16.897 22.703-23.184 32.796-25.482 16.38-3.731 27.819-18.028 27.819-34.767 0-11.478-5.572-22.333-14.905-29.038-9.368-6.73-20.98-8.49-31.862-4.825-41.561 13.995-71.401 50.138-77.511 93.11-53.973 7.242-102.95 34.944-137.335 78.488-14.821 18.77-16.778 43.442-5.106 64.388 6.835 12.267 17.207 21.236 29.397 26.045v68.492c0 68.793 42.9 130.108 107.168 153.838l3.87 7.363c5.97 11.359 17.651 18.416 30.484 18.416 12.832 0 24.514-7.057 30.483-18.416l3.871-7.364c64.267-23.73 107.167-85.045 107.167-153.838v-68.491c12.191-4.809 22.563-13.78 29.397-26.047 11.672-20.944 9.715-45.616-5.105-64.386zm-48.881-20.524-38.683 40.137-28.007-29.152 31.448-32.629c12.459 5.886 24.272 13.132 35.242 21.644zm-192.604 54.681 28.074-29.082 27.989 29.041-28.051 29.105zm6.717 35.79c-15.144 1.029-30.235 2.384-45.207 4.082l24.59-25.473zm35.257-79.27 28.274-29.288 27.908 29.053-28.204 29.264zm27.977 57.849 18.456 19.15c-4.247-.053-8.494-.091-12.735-.091-8.121 0-16.257.121-24.394.317zm13.888-14.41 28.181-29.24 28.005 29.154-28.134 29.191zm70.05 14.349 23.245 24.199c-14.355-1.442-28.802-2.579-43.283-3.409zm-16.515-98.716-25.327 26.279-27.899-29.039 6.559-6.795c16.066 1.245 31.719 4.48 46.667 9.555zm-6.286-102.394c4.7-1.583 9.737-.812 13.811 2.114 4.178 3.002 6.574 7.666 6.574 12.795 0 7.344-5.042 13.622-12.261 15.266-25.278 5.758-42.584 21.085-48.6 42.608-4.949-.345-9.929-.54-14.94-.54-2.65 0-5.29.067-7.924.164 6.437-33.5 30.453-61.333 63.34-72.407zm-68.234 92.682-34.843 36.153-22.5-23.346c18.135-7.136 37.435-11.494 57.343-12.807zm-76.592 21.655 27.86 28.908-28.051 29.105-33.762-35.031c10.516-8.913 21.9-16.599 33.953-22.982zm-64.039 92.961c-6.007-10.781-8.287-27.544 3.332-42.259 3.865-4.895 7.945-9.554 12.201-14l34.427 35.721-34.555 35.854c-6.986-3.807-12.196-9.558-15.405-15.316zm274.97 104.272c0 61.588-39.156 116.348-97.435 136.263-2.419.827-4.43 2.548-5.618 4.811l-5.688 10.823c-2.541 4.834-7.319 7.721-12.78 7.721-5.462 0-10.24-2.886-12.78-7.721l-5.688-10.823c-1.189-2.263-3.2-3.984-5.618-4.811-58.279-19.916-97.435-74.675-97.435-136.263v-64.5c2.733.059 5.503-.061 8.298-.382 37.324-4.285 75.418-6.458 113.224-6.458s75.9 2.173 113.225 6.458c2.355.271 5.983.403 8.297.403.432 0-.43-.012 0-.021v64.5zm31.927-104.272c-4.369 7.841-12.445 15.668-23.672 18.593l-37.661-39.2 39.985-41.487c6.397 6.135 12.422 12.751 18.016 19.836 11.619 14.714 9.34 31.477 3.332 42.258z" fill="#e1a282"/></g></svg>