<svg id="Capa_1" enable-background="new 0 0 512 512" height="512" viewBox="0 0 512 512" width="512" xmlns="http://www.w3.org/2000/svg"><g><path d="m174.794 339.32h-144.794c-11.046 0-20-8.954-20-20 0-11.046 8.954-20 20-20h144.794c11.046 0 20 8.954 20 20 0 11.046-8.955 20-20 20z" fill="#dee9ef"/><g><path d="m30 126.566h216.045c20.97 0 38.572-16.572 38.972-37.539.406-21.264-16.622-38.724-37.726-39.023-11.067-.157-20.44-8.735-20.549-19.802-.11-11.139 8.887-20.202 19.999-20.202 43.423 0 78.701 35.537 78.279 79.055-.418 43.096-36.179 77.511-79.277 77.511h-215.743c-11.046 0-20-8.954-20-20 0-11.046 8.954-20 20-20z" fill="#dee9ef"/></g><g><path d="m268.703 339.32h154.317c20.97 0 38.572 16.572 38.972 37.539.406 21.264-16.622 38.724-37.726 39.023-11.067.157-20.44 8.735-20.549 19.802-.11 11.138 8.886 20.202 19.999 20.202 43.423 0 78.701-35.537 78.279-79.055-.418-43.096-36.179-77.511-79.277-77.511h-154.015c-11.046 0-20 8.954-20 20 0 11.046 8.954 20 20 20z" fill="#dee9ef"/></g><path d="m365.337 253.012h-211.67c-11.046 0-20-8.954-20-20 0-11.046 8.954-20 20-20h211.67c11.046 0 20 8.954 20 20 0 11.046-8.954 20-20 20z" fill="#dee9ef"/><g><ellipse cx="450.453" cy="75.453" fill="#fff3d6" rx="69.07" ry="39.884" transform="matrix(.707 -.707 .707 .707 78.581 340.618)"/></g><g><ellipse cx="193.393" cy="438.153" fill="#fff3d6" rx="39.884" ry="69.07" transform="matrix(.707 -.707 .707 .707 -253.177 265.081)"/></g><g fill="#7aa9bf"><path d="m30 176.566h215.744c48.76 0 88.81-39.214 89.276-87.414.23-23.717-8.853-46.078-25.575-62.963-16.725-16.888-38.994-26.189-62.704-26.189-8.069 0-15.64 3.158-21.318 8.892-5.678 5.733-8.76 13.336-8.681 21.408.16 16.143 13.8 29.467 30.407 29.703 7.559.107 14.63 3.173 19.911 8.633 5.276 5.455 8.103 12.628 7.958 20.201-.292 15.29-13.29 27.729-28.974 27.729h-216.044c-16.542 0-30 13.458-30 30s13.458 30 30 30zm0-40h216.045c26.504 0 48.472-21.24 48.97-47.348.247-12.932-4.576-25.18-13.579-34.488-9.009-9.313-21.084-14.542-34.003-14.726-5.842-.083-10.638-4.525-10.691-9.902-.026-2.692 1.001-5.228 2.893-7.139 1.893-1.912 4.417-2.964 7.106-2.964 18.331 0 35.553 7.196 48.494 20.263 12.937 13.063 19.964 30.357 19.786 48.696-.361 37.279-31.439 67.607-69.277 67.607h-215.744c-5.514 0-10-4.486-10-10s4.486-9.999 10-9.999z"/><path d="m422.719 289.32h-154.016c-16.542 0-30 13.458-30 30s13.458 30 30 30h154.317c15.685 0 28.682 12.439 28.974 27.729.145 7.572-2.682 14.746-7.958 20.201-5.282 5.46-12.353 8.526-19.912 8.633-16.607.235-30.248 13.56-30.407 29.703-.08 8.072 3.003 15.675 8.681 21.408 5.678 5.734 13.249 8.892 21.318 8.892 23.71 0 45.979-9.301 62.704-26.189 16.722-16.885 25.805-39.246 25.575-62.962-.466-48.201-40.515-87.415-89.276-87.415zm49.492 136.304c-12.941 13.066-30.163 20.263-48.494 20.263-2.69 0-5.213-1.053-7.106-2.964-1.892-1.911-2.919-4.446-2.893-7.139.053-5.377 4.849-9.819 10.691-9.902 12.919-.183 24.995-5.413 34.003-14.726 9.003-9.308 13.826-21.556 13.579-34.488-.498-26.107-22.466-47.348-48.97-47.348h-154.318c-5.514 0-10-4.486-10-10s4.486-10 10-10h154.016c37.838 0 68.916 30.329 69.277 67.608.178 18.339-6.848 35.633-19.785 48.696z"/><path d="m204.794 319.32c0-16.542-13.458-30-30-30h-144.794c-16.542 0-30 13.458-30 30s13.458 30 30 30h144.793c16.543 0 30.001-13.458 30.001-30zm-184.794 0c0-5.514 4.486-10 10-10h144.793c5.514 0 10 4.486 10 10s-4.486 10-10 10h-144.793c-5.514 0-10-4.486-10-10z"/><path d="m123.667 233.012c0 16.542 13.458 30 30 30h211.67c16.542 0 30-13.458 30-30s-13.458-30-30-30h-211.67c-16.542 0-30 13.458-30 30zm251.67 0c0 5.514-4.486 10-10 10h-211.67c-5.514 0-10-4.486-10-10s4.486-10 10-10h211.67c5.514 0 10 4.486 10 10z"/><path d="m386.607 149.3c2.559 0 5.119-.976 7.071-2.929l11.087-11.087c5.762 1.138 11.575 1.695 17.359 1.695 23.546 0 46.596-9.247 63.602-26.252 22.574-22.573 31.475-55.792 23.229-86.691-.923-3.458-3.625-6.16-7.084-7.083-30.899-8.246-64.118.655-86.691 23.228-21.183 21.184-30.325 51.741-24.556 80.96l-11.089 11.089c-3.905 3.905-3.905 10.237 0 14.143 1.953 1.951 4.512 2.927 7.072 2.927zm42.715-94.978c16.139-16.14 39.285-23.282 61.594-19.332 3.952 22.309-3.192 45.454-19.332 61.593-12.992 12.992-30.526 20.149-48.507 20.387l21.369-21.369c3.905-3.905 3.905-10.237 0-14.143-3.905-3.905-10.237-3.905-14.143 0l-21.37 21.37c.239-17.98 7.397-35.513 20.389-48.506z"/><path d="m253.223 483.84c5.769-29.219-3.373-59.776-24.556-80.96-22.574-22.574-55.79-31.472-86.691-23.229-3.458.923-6.16 3.625-7.083 7.083-8.247 30.899.654 64.118 23.228 86.692 17.008 17.007 40.054 26.252 63.602 26.252 5.783 0 11.598-.558 17.359-1.696l11.088 11.088c1.953 1.953 4.512 2.929 7.071 2.929s5.119-.976 7.071-2.929c3.905-3.905 3.905-10.237 0-14.143zm-80.961-24.556c-16.14-16.139-23.284-39.285-19.332-61.594 22.307-3.952 45.456 3.193 61.593 19.332 12.993 12.992 20.151 30.526 20.388 48.507l-21.37-21.37c-3.905-3.905-10.237-3.905-14.143 0-3.905 3.905-3.905 10.237 0 14.143l21.368 21.368c-17.979-.238-35.513-7.395-48.504-20.386z"/></g></g></svg>