<svg id="Capa_1" enable-background="new 0 0 511.961 511.961" height="512" viewBox="0 0 511.961 511.961" width="512" xmlns="http://www.w3.org/2000/svg"><g><g fill="#ff9eb2"><path d="m292.209 219.752c56.72 10.665 117.558-5.948 161.448-49.838 42.183-42.183 13.368-100.872 20.764-132.373-31.501 7.396-90.189-21.42-132.373 20.764-43.89 43.89-60.502 104.728-49.838 161.448"/><path d="m277.311 298.137c28.391 41.54 76.136 68.803 130.248 68.803 52.009 0 70.424-53.943 94.402-68.802-23.978-14.859-42.394-68.802-94.402-68.802-54.113 0-101.857 27.263-130.248 68.803"/><path d="m229.567 349.55c-8.787 46.732 4.9 96.857 41.062 133.018 34.755 34.755 83.11 11.014 109.063 17.108-6.094-25.954 17.648-74.308-17.108-109.063-36.162-36.162-86.287-49.849-133.017-41.063"/><path d="m213.824 234.651c-41.54-28.391-68.803-76.136-68.803-130.248 0-52.009 53.943-70.424 68.802-94.402 14.859 23.978 68.802 42.394 68.802 94.402 0 54.113-27.263 101.857-68.803 130.248"/><path d="m162.412 282.395c-46.732 8.787-96.857-4.9-133.018-41.062-34.755-34.755-11.014-83.11-17.108-109.063 25.954 6.094 74.308-17.648 109.063 17.108 36.162 36.161 49.849 86.286 41.063 133.017"/></g><path d="m507.229 289.638c-6.333-3.925-13.171-12.421-20.412-21.417-16.605-20.63-39.346-48.885-79.258-48.885-4.152 0-8.28.172-12.384.476 24.234-9.456 46.616-23.888 65.553-42.826 31.874-31.875 27.626-71.166 24.213-102.737-1.438-13.297-2.795-25.857-.785-34.421.791-3.37-.217-6.91-2.664-9.357-2.448-2.448-5.988-3.456-9.357-2.665-8.563 2.012-21.124.653-34.421-.785-31.571-3.414-70.863-7.661-102.737 24.212-18.946 18.947-33.374 41.343-42.83 65.59.305-4.116.478-8.257.478-12.422 0-39.912-28.254-62.653-48.885-79.258-8.996-7.24-17.492-14.079-21.417-20.412-1.822-2.941-5.038-4.731-8.499-4.731s-6.677 1.79-8.5 4.732c-3.925 6.333-12.421 13.171-21.417 20.411-20.63 16.605-48.885 39.346-48.885 79.259 0 20.051 3.597 39.618 10.336 57.919-5.047-7.063-10.691-13.768-16.937-20.014-26.858-26.857-61.087-23.157-86.081-20.455-10.802 1.167-21.004 2.27-27.768.683-3.368-.79-6.909.216-9.357 2.664-2.447 2.448-3.455 5.987-2.664 9.357 1.588 6.763.485 16.966-.683 27.768-2.702 24.994-6.403 59.223 20.455 86.081 30.105 30.105 70.638 46.57 112.444 46.57 8.048 0 16.145-.62 24.222-1.861l22.86 22.86-138.867 138.865c-3.905 3.905-3.905 10.237 0 14.143 1.953 1.953 4.512 2.929 7.071 2.929s5.119-.976 7.071-2.929l138.865-138.865 22.851 22.851c-7.691 50.032 8.813 100.77 44.715 136.672 18.104 18.104 39.554 22.323 59.27 22.322 9.534 0 18.665-.987 26.811-1.868 10.802-1.168 21.006-2.271 27.768-.683 3.367.79 6.909-.216 9.357-2.664 2.447-2.448 3.455-5.987 2.664-9.357-1.588-6.763-.485-16.966.683-27.768 2.702-24.993 6.403-59.223-20.455-86.081-6.247-6.247-12.952-11.891-20.015-16.938 18.301 6.74 37.869 10.337 57.92 10.337 39.913 0 62.654-28.255 79.259-48.885 7.24-8.996 14.079-17.492 20.411-21.417 2.942-1.823 4.732-5.039 4.732-8.5s-1.789-6.677-4.731-8.5zm-35.992-8.877c2.021 2.51 4.014 4.983 6.006 7.376h-41.879l22.852-22.852c4.615 5.039 8.892 10.346 13.021 15.476zm-56.344 75.72-48.344-48.344h40.531l36.431 36.431c-8.146 6.066-17.473 10.533-28.618 11.913zm28.617-104.774-36.43 36.43h-40.531l48.343-48.343c11.145 1.38 20.472 5.847 28.618 11.913zm-105.246 36.43h-40.389c22.88-25.373 53.818-42.008 87.511-47.122zm0 20 47.124 47.124c-33.695-5.113-64.634-21.75-87.514-47.124zm-66.125-20h-34.169l57.65-57.65c10.051 1.603 20.124 2.396 30.143 2.396 5.952 0 11.882-.287 17.773-.838-28.143 11.632-52.957 30.862-71.397 56.092zm-104.746-219.686 36.431 36.431v40.531l-48.344-48.344c1.38-11.145 5.847-20.472 11.913-28.618zm92.862 0c6.066 8.146 10.532 17.473 11.912 28.618l-48.342 48.343v-40.531zm-36.431 105.246 47.122-47.122c-5.114 33.693-21.749 64.631-47.122 87.511zm-20 0v40.39c-25.374-22.88-42.01-53.819-47.124-87.514zm146.578-109.547c8.676-8.262 18.203-13.236 28.133-16.073v71.209l-28.133 28.133zm113.275-1.721c.362 4.542.866 9.213 1.38 13.969 1.292 11.951 2.648 24.565 1.998 37.029h-54.376zm-119.131 119.132h79.817c-32.124 22.704-71.22 33.671-110.694 30.876zm103.266-20h-83.266l28.133-28.133h71.207c-2.837 9.93-7.812 19.457-16.074 28.133zm-12.247-114.655c4.756.514 9.427 1.019 13.969 1.381l-50.998 50.998v-54.377c12.463-.65 25.077.706 37.029 1.998zm-105.163 40.692v79.82l-30.877 30.877c-2.795-39.473 8.173-78.571 30.877-110.697zm-48.922 128.743-57.656 57.656v-34.174c25.231-18.441 44.461-43.257 56.093-71.4-1.477 15.805-.991 31.895 1.563 47.918zm-50.28-175.617c5.13 4.129 10.438 8.407 15.476 13.021l-22.852 22.852v-41.879c2.394 1.992 4.866 3.986 7.376 6.006zm-34.753 0c2.511-2.021 4.984-4.014 7.377-6.007v41.88l-22.852-22.853c5.038-4.613 10.345-8.891 15.475-13.02zm-41.594 219.97-25.943-25.943v-61.051c18.118 25.239 27.272 55.869 25.943 86.994zm-68.991-68.991v-50.344c8.072 1.604 15.836 4.747 23.048 10.355v63.038zm-41.373-49.967c7.104-.767 14.277-1.539 21.373-1.759v31.726l-29.159-29.158c2.559-.245 5.157-.525 7.786-.809zm-22.737 22.738c.284-2.63.564-5.228.809-7.787l29.159 29.159h-31.728c.221-7.096.992-14.269 1.76-21.372zm-.379 41.372h50.347l23.048 23.048h-63.04c-5.608-7.213-8.75-14.976-10.355-23.048zm32.341 43.048h61.054l25.943 25.943c-31.128 1.329-61.758-7.825-86.997-25.943zm119.422 30.082c4.09-26.618 1.317-53.431-7.567-78.11 10.417 14.806 23.274 28.008 38.255 38.958v54.173l-7.834 7.834zm63.988 92.274 25.943 25.943v61.054c-18.118-25.24-27.272-55.871-25.943-86.997zm68.992 119.338c-8.072-1.604-15.836-4.747-23.048-10.354v-63.04l23.048 23.048zm-54.849-133.48c31.124-1.33 61.754 7.825 86.994 25.943h-61.051zm96.221 133.102c-7.103.768-14.276 1.54-21.372 1.76v-31.728l29.159 29.159c-2.559.245-5.157.524-7.787.809zm22.738-22.738c-.284 2.63-.564 5.227-.809 7.786l-29.158-29.159h31.727c-.221 7.097-.992 14.27-1.76 21.373zm.377-41.373h-50.345l-23.048-23.048h63.038c5.608 7.212 8.751 14.976 10.355 23.048zm-137.618-87.273-22.852-22.852 7.836-7.836h54.168c10.95 14.983 24.154 27.84 38.961 38.257-24.679-8.885-51.493-11.658-78.113-7.569zm225.232-7.837-22.853-22.852h41.88c-1.992 2.394-3.986 4.867-6.007 7.377-4.128 5.13-8.406 10.438-13.02 15.475z" fill="#ff5d7f"/></g></svg>