<svg id="Capa_1" enable-background="new 0 0 512.001 512.001" height="512" viewBox="0 0 512.001 512.001" width="512" xmlns="http://www.w3.org/2000/svg"><g><g><path d="m363.522 472.36c-76.357 0-138.479-62.121-138.479-138.478s62.121-138.479 138.479-138.479 138.479 62.121 138.479 138.479c0 76.357-62.121 138.478-138.479 138.478zm0-232.957c-52.096 0-94.479 42.383-94.479 94.479 0 52.095 42.383 94.478 94.479 94.478s94.479-42.383 94.479-94.478c0-52.096-42.383-94.479-94.479-94.479z" fill="#ffdb85"/></g><path d="m305.011 502.001c44.532-103.103 69.209-216.79 69.209-336.239h-364.22c0 119.45 24.676 233.136 69.209 336.239z" fill="#ffdb85"/><path d="m174.721 399.618h-72.727c-12.106 0-21.919-9.814-21.919-21.919v-84.552c0-12.106 9.814-21.919 21.919-21.919h72.727c12.106 0 21.919 9.814 21.919 21.919v84.552c0 12.105-9.813 21.919-21.919 21.919z" fill="#fff"/><path d="m118.566 348.536c5.367 9.296 14.358 15.192 24.159 16.939 2.526.45 4.551-2.09 3.607-4.475l-9.319-23.525c-.716-1.808 1.691-3.191 2.893-1.663l15.359 19.542c1.601 2.037 4.864 1.535 5.699-.918 3.135-9.208 2.435-19.668-2.811-28.754-7.086-12.274-20.491-18.624-33.733-17.317-1.592.157-3.051.999-3.983 2.299-7.755 10.814-8.957 25.599-1.871 37.872z" fill="#e6f5b6"/><g fill="#ffaa64"><path d="m472.298 232.912c-23.467-25.264-54.569-41.426-88.333-46.096.167-7.005.256-14.022.256-21.054 0-5.523-4.478-10-10-10h-227.269c-1.743-2.934-4.934-4.907-8.595-4.907s-6.852 1.973-8.595 4.907h-119.762c-5.523 0-10 4.477-10 10 0 118.16 23.561 232.621 70.029 340.205 1.582 3.663 5.19 6.035 9.18 6.035h225.802c3.99 0 7.599-2.372 9.181-6.035 4.073-9.429 7.958-18.914 11.679-28.447 12.244 3.212 24.87 4.84 37.651 4.84 81.871 0 148.479-66.607 148.479-148.478 0-37.547-14.101-73.406-39.703-100.97zm-92.24 18.137c17.406 3.469 33.339 12.363 45.57 25.63 14.428 15.65 22.373 35.965 22.373 57.203 0 46.582-37.896 84.478-84.479 84.478-5.582 0-11.112-.552-16.53-1.63 16.487-53.933 27.535-109.28 33.066-165.681zm-81.648 240.952h-212.599c-42.386-100.262-64.486-206.569-65.753-316.239h108.3v85.465h-26.363c-17.601 0-31.92 14.319-31.92 31.919v84.552c0 17.601 14.319 31.919 31.92 31.919h72.727c17.601 0 31.919-14.319 31.919-31.919v-84.552c0-17.601-14.319-31.919-31.919-31.919h-26.363v-85.465h215.805c-1.268 109.669-23.368 215.976-65.754 316.239zm-123.689-210.774c6.572 0 11.919 5.347 11.919 11.919v84.552c0 6.572-5.347 11.919-11.919 11.919h-72.727c-6.573 0-11.92-5.347-11.92-11.919v-84.552c0-6.572 5.347-11.919 11.92-11.919zm188.801 181.132c-10.364 0-20.604-1.234-30.56-3.672 2.753-7.574 5.403-15.177 7.936-22.812 7.4 1.64 14.975 2.484 22.625 2.484 57.609 0 104.479-46.869 104.479-104.478 0-26.275-9.826-51.404-27.668-70.759-15.625-16.95-36.149-28.144-58.538-32.109.598-8.011 1.076-16.044 1.453-24.094 28.419 4.396 54.554 18.242 74.396 39.604 22.156 23.853 34.357 54.877 34.357 87.358-.001 70.844-57.636 128.478-128.48 128.478z"/><path d="m94.351 124.957c1.962 2.646 4.982 4.045 8.041 4.045 2.07 0 4.158-.64 5.948-1.967 4.437-3.29 5.367-9.552 2.078-13.989-5.009-6.756-5.009-15.833 0-22.588 10.292-13.88 10.292-32.532 0-46.412-3.29-4.437-9.552-5.367-13.989-2.077s-5.366 9.552-2.077 13.989c5.009 6.755 5.009 15.833 0 22.588-10.292 13.879-10.292 32.531-.001 46.411z"/><path d="m256.398 124.957c1.961 2.646 4.982 4.044 8.041 4.044 2.07 0 4.158-.64 5.948-1.968 4.437-3.29 5.366-9.552 2.077-13.989-5.009-6.755-5.009-15.833 0-22.588 10.29-13.88 10.29-32.531 0-46.411-3.289-4.437-9.553-5.367-13.988-2.078-4.437 3.289-5.367 9.552-2.078 13.989 5.009 6.755 5.009 15.833 0 22.588-10.292 13.881-10.292 32.533 0 46.413z"/><path d="m175.374 84.957c1.962 2.646 4.982 4.045 8.041 4.045 2.07 0 4.158-.64 5.948-1.967 4.437-3.29 5.367-9.552 2.078-13.989-5.009-6.756-5.009-15.833 0-22.588 10.292-13.88 10.292-32.532 0-46.412-3.29-4.437-9.552-5.367-13.989-2.077s-5.366 9.552-2.077 13.989c5.009 6.755 5.009 15.833 0 22.588-10.292 13.879-10.292 32.531-.001 46.411z"/></g></g></svg>