<svg id="Capa_1" enable-background="new 0 0 511.977 511.977" height="512" viewBox="0 0 511.977 511.977" width="512" xmlns="http://www.w3.org/2000/svg"><g><g><g><path d="m304.477 64.111 37.662-37.662c21.939-21.939 57.635-21.938 79.574 0l63.815 63.815c21.939 21.939 21.939 57.635 0 79.574l-37.662 37.662c-21.939 21.939-57.635 21.938-79.574 0l-63.815-63.815c-21.939-21.939-21.939-57.636 0-79.574zm86.389-6.816c-4.93-4.93-12.952-4.93-17.882 0l-37.662 37.662c-4.93 4.93-4.93 12.952 0 17.882l63.815 63.815c4.93 4.93 12.952 4.93 17.882 0l37.662-37.662c4.93-4.93 4.93-12.952 0-17.882z" fill="#9bbecf"/></g><path d="m200.547 247.402c-.567-.659-16.219-16.314-32.2-32.273-18.97-18.944-49.703-18.934-68.66.023l-29.091 29.091c-62.406 62.405-78.364 157.523-39.742 236.88 79.356 38.622 174.474 22.664 236.881-39.743l29.091-29.091c18.957-18.957 18.967-49.69.023-68.66-15.96-15.981-31.615-31.633-32.273-32.2z" fill="#9bbecf"/><g><path d="m249.641 176.539h101.627v69.968h-101.627z" fill="#fff" transform="matrix(.707 -.707 .707 .707 -61.568 274.407)"/><path d="m177.241 334.736c-3.608-27.585 5.806-55.28 25.478-74.952l37.068-37.068 49.475 49.475-37.068 37.068c-19.673 19.671-47.368 29.085-74.953 25.477z" fill="#dee9ef"/></g></g><g fill="#7aa9bf"><path d="m21.862 485.499c.979 2.012 2.604 3.637 4.616 4.616 30.226 14.71 62.662 21.861 94.835 21.862 56.331.003 111.876-21.909 153.493-63.525l29.09-29.09c22.819-22.82 22.832-59.962.027-82.798-26.926-26.963-31.435-31.414-32.487-32.406l89.685-89.686.099.099c12.5 12.499 29.141 19.383 46.858 19.383 17.718 0 34.359-6.883 46.858-19.382l37.662-37.662c25.837-25.837 25.837-67.878 0-93.716l-63.815-63.815c-25.838-25.837-67.879-25.837-93.716 0l-37.662 37.662c-12.499 12.5-19.382 29.141-19.382 46.858s6.884 34.358 19.383 46.858l.099.099-89.685 89.686c-.992-1.052-5.443-5.561-32.406-32.487-22.835-22.803-59.978-22.792-82.798.027l-29.09 29.09c-65.387 65.385-82.13 165.181-41.664 248.327zm353.502-285.07-63.815-63.816c-8.722-8.722-13.525-20.34-13.525-32.716s4.803-23.994 13.525-32.715l37.662-37.662c8.721-8.722 20.34-13.525 32.715-13.525s23.994 4.803 32.716 13.525l63.815 63.815c8.722 8.722 13.525 20.34 13.525 32.716s-4.803 23.994-13.525 32.715l-37.662 37.662c-8.722 8.722-20.34 13.525-32.715 13.525-12.376.001-23.995-4.802-32.716-13.524zm-28.384-.099-101.858 101.857c-15.458 15.459-36.904 23.851-58.595 23.264-.598-21.699 7.805-43.138 23.263-58.596l101.858-101.858zm-269.312 50.983 29.09-29.09c15.027-15.027 39.486-15.034 54.522-.019 18.324 18.299 28.062 28.057 32.454 32.478-20.423 21.607-30.275 51.805-26.41 81.351.588 4.494 4.125 8.031 8.619 8.619 4.232.554 8.478.826 12.71.826 25.311 0 50.128-9.739 68.641-27.237 4.655 4.628 14.56 14.514 32.478 32.456 15.017 15.037 15.008 39.496-.019 54.522l-29.09 29.09c-58.54 58.54-147.464 74.128-222.306 39.311-34.817-74.842-19.229-163.768 39.311-222.307z"/><path d="m328.251 119.91 63.815 63.815c4.415 4.414 10.214 6.622 16.013 6.622s11.597-2.207 16.012-6.621l37.662-37.662c8.829-8.829 8.829-23.194 0-32.024l-63.815-63.815c-8.831-8.829-23.196-8.828-32.025 0l-37.661 37.661c-8.83 8.829-8.829 23.195-.001 32.024zm14.143-17.883 37.661-37.661c1.031-1.031 2.709-1.031 3.741 0l63.815 63.815c1.031 1.031 1.031 2.709 0 3.74l-37.661 37.662c-1.03 1.03-2.708 1.031-3.74-.001l-63.815-63.815c-1.032-1.031-1.033-2.709-.001-3.74z"/></g></g></svg>