<svg id="Capa_1" enable-background="new 0 0 512.037 512.037" height="512" viewBox="0 0 512.037 512.037" width="512" xmlns="http://www.w3.org/2000/svg"><g><g><path d="m497.422 42.272c-15.054-24.064-62.735-21.378-106.5 6-5.836 3.651-11.295 7.563-16.36 11.647-.239-19.011-6.405-34.01-18.595-40.772-25.475-14.131-67.541 13.019-93.957 60.642-5.179 9.336-9.356 18.762-12.558 27.997-6.656-15.557-16.715-25.814-29.025-27.476-27.02-3.646-54.593 35.413-61.587 87.241-2.58 19.122-1.991 37.301 1.128 52.825-11.04-13.237-24.282-20.897-38.437-20.706-37.345.504-66.884 55.406-65.977 122.628.411 30.495 7.018 58.286 17.6 79.504 21.564 14.853 56.284 25.64 96.39 25.64 65.734 0 119.021-26.038 119.021-58.158 0-13.472-9.378-25.873-25.114-35.733 8.046 1.102 16.456 1.691 25.114 1.691 57.78 0 104.619-26.038 104.619-58.158 0-14.044-8.955-26.925-23.863-36.976 1.499.038 3.005.063 4.521.063 53.371 0 96.636-23.683 96.636-52.898 0-17.816-16.107-33.562-40.767-43.148 5.257-2.555 10.52-5.452 15.728-8.71 43.762-27.377 67.037-69.079 51.983-93.143z" fill="#ffad93"/></g><path d="m505.899 36.968c-9.303-14.871-27.598-22.319-51.523-20.971-21.768 1.226-46.187 9.677-68.758 23.797-1.045.654-2.085 1.32-3.119 1.998-3.376-14.481-10.8-25.353-21.681-31.389-30.77-17.068-78.012 11.281-107.552 64.536-1.961 3.534-3.805 7.117-5.525 10.733-7.299-8.669-16.164-13.947-25.977-15.271-16.94-2.289-33.922 7.288-47.81 26.96-12.543 17.769-21.431 42.221-25.025 68.854-1.382 10.242-1.924 20.443-1.631 30.301-8.229-4.637-16.981-6.959-25.903-6.844-21.856.295-41.746 15.053-56.005 41.556-13.253 24.633-20.298 57.024-19.836 91.206.383 28.373 6.053 55.876 16.031 78.242-7.102 9.669-14.07 19.443-20.866 29.346-13.734 20.012-26.96 40.69-39.311 61.458-2.823 4.747-1.264 10.883 3.483 13.706 1.603.953 3.363 1.407 5.102 1.407 3.41 0 6.734-1.746 8.604-4.89 12.131-20.397 25.122-40.707 38.612-60.364 6.043-8.806 12.215-17.518 18.506-26.136 24.786 14.209 58.348 22.24 93.828 22.24 33.283 0 64.731-6.41 88.551-18.049 26.098-12.752 40.47-30.548 40.47-50.109 0-8.339-2.715-16.482-7.893-24.053 63.259-.648 112.512-30.348 112.512-68.147 0-9.778-3.36-19.279-9.724-27.931 50.113-5.287 87.018-30.573 87.018-61.879 0-16.624-10.654-32.179-29.271-43.671 22.356-14.079 40.461-32.22 51.013-51.127 11.676-20.924 12.984-40.637 3.68-55.509zm-21.145 45.76c-9.011 16.146-24.858 31.847-44.621 44.21-4.767 2.982-9.745 5.739-14.795 8.193-3.576 1.738-5.783 5.43-5.621 9.402.163 3.973 2.663 7.472 6.369 8.913 21.534 8.37 34.39 21.015 34.39 33.827 0 10.158-8.422 20.594-23.105 28.632-16.806 9.199-39.368 14.265-63.531 14.265-1.432 0-2.854-.024-4.271-.059-4.454-.136-8.425 2.722-9.776 6.955-1.352 4.233.251 8.85 3.936 11.334 7.265 4.897 19.453 15.136 19.453 28.684 0 11.741-9.057 23.242-25.501 32.384-18.299 10.172-42.845 15.774-69.118 15.774-8.018 0-16.011-.538-23.757-1.599-4.666-.64-9.151 2.068-10.758 6.498-1.607 4.431.098 9.381 4.091 11.884 7.627 4.779 20.424 14.676 20.424 27.259 0 11.341-10.662 23.056-29.251 32.139-21.14 10.33-49.47 16.019-79.77 16.019-30.59 0-60.274-6.782-81.765-18.419 11.419-15.056 23.2-29.816 35.355-44.236 25.837 6.923 52.521 10.441 79.441 10.441 5.523 0 10-4.477 10-10s-4.477-10-10-10c-21.904 0-43.639-2.486-64.826-7.394 26.269-29.903 54.092-58.322 83.339-85.03 1.409-1.286 2.838-2.551 4.253-3.829 26.472 7.292 53.857 10.987 81.489 10.987 5.523 0 10-4.477 10-10s-4.477-10-10-10c-21.388 0-42.615-2.376-63.328-7.057 21.392-18.468 43.536-36.083 66.327-52.829 26.52 7.32 53.956 11.028 81.642 11.028 5.523 0 10-4.477 10-10s-4.477-10-10-10c-20.323 0-40.5-2.14-60.228-6.369 27.686-19.324 56.266-37.375 85.631-54.018 4.805-2.723 6.492-8.826 3.769-13.63-2.722-4.804-8.824-6.492-13.63-3.769-30.953 17.542-61.058 36.607-90.174 57.07.027-20.923 2.354-41.786 6.97-62.233 1.216-5.387-2.165-10.741-7.552-11.957-5.389-1.216-10.74 2.165-11.957 7.552-5.986 26.516-8.386 53.682-7.153 80.827-22.289 16.409-43.964 33.642-64.938 51.671.236-19.918 2.563-39.765 6.958-59.236 1.216-5.387-2.165-10.74-7.553-11.956-5.384-1.216-10.741 2.165-11.956 7.553-5.998 26.573-8.395 53.799-7.143 81.002-1.637 1.477-3.287 2.938-4.914 4.425-27.829 25.414-54.399 52.341-79.589 80.604.416-18.952 2.718-37.826 6.901-56.36 1.216-5.387-2.165-10.74-7.553-11.956-5.383-1.217-10.74 2.166-11.956 7.553-6.172 27.344-8.523 55.378-7.018 83.368-11.225 13.297-22.133 26.882-32.744 40.712-6.269-17.789-9.801-38.452-10.089-59.792-.416-30.84 5.781-59.77 17.451-81.46 10.664-19.82 24.394-30.841 38.662-31.034.127-.001.252-.002.379-.002 13.186 0 23.713 9.284 30.245 17.114 2.931 3.514 7.874 4.59 11.999 2.613 4.127-1.977 6.385-6.502 5.484-10.988-3.015-15.01-3.368-32.132-1.022-49.518 3.171-23.5 10.822-44.807 21.543-59.994 9.241-13.091 19.74-19.899 28.796-18.675 11.054 1.492 18.008 14.11 21.169 21.499 1.625 3.798 5.413 6.213 9.546 6.06 4.128-.146 7.742-2.814 9.096-6.717 3.1-8.94 7.088-17.83 11.855-26.423 11.992-21.619 27.621-39.35 44.009-49.927 14.29-9.223 27.539-11.709 36.353-6.821 11.427 6.339 13.33 22.866 13.446 32.153.048 3.828 2.277 7.293 5.742 8.923 3.465 1.631 7.556 1.139 10.535-1.264 4.872-3.928 10.048-7.614 15.386-10.954 19.763-12.363 40.814-19.744 59.275-20.784 16.078-.906 28.261 3.326 33.443 11.61 5.183 8.283 3.656 21.096-4.189 35.152z" fill="#ff926f"/></g></svg>