<svg id="Capa_1" enable-background="new 0 0 512.034 512.034" height="512" viewBox="0 0 512.034 512.034" width="512" xmlns="http://www.w3.org/2000/svg"><g><path d="m447.428 300.915c12.532 0 24.896.718 37.054 2.113 13.815 1.586 22.744-14.329 14.126-25.243-11.936-15.116-30.424-24.817-51.18-24.817s-39.244 9.702-51.18 24.817c-8.618 10.913.311 26.829 14.126 25.243 12.158-1.395 24.522-2.113 37.054-2.113z" fill="#dee9ef"/><path d="m490.04 303.139v24.13c0 21.338-13.569 40.315-33.761 47.215l-1.843 3.507c-2.967 5.646-11.05 5.646-14.018 0l-1.843-3.507c-20.192-6.9-33.761-25.877-33.761-47.215v-24.13z" fill="#fff3d6"/><path d="m317.803 479.034h123.929c0-25.018-20.281-45.299-45.299-45.299h-9.873z" fill="#dee9ef"/><g><path d="m254.362 213.075c7.174-15.966 11.165-33.672 11.165-52.311.001-70.562-57.201-127.764-127.763-127.764s-127.764 57.202-127.764 127.763c0 17.641 3.701 34.064 10.166 49.349 6.404-18.478 24.088-32.128 44.745-32.128 26.074 0 47.21 21.137 47.21 47.211 0 12.283-4.801 21.051-12.222 31.985-17.064 23.106-27.073 51.736-27.073 82.664 0 76.872 62.318 139.19 139.19 139.19h60.773z" fill="#ffad93"/></g><path d="m384.016 213.874c0 18.875-8.698 35.719-22.304 46.741l-10.551-12.49 35.282 41.763 24.2 3.861c11.03 1.76 17.692 13.171 13.803 23.641-2.576 6.935-9.194 11.537-16.592 11.537h-90.051-9.313 9.313c41.45 0 75.053 33.602 75.053 75.053 0 41.451-33.602 75.053-75.053 75.053h-45.012c-67.865 0-122.88-55.015-122.88-122.88 0-37.124 16.783-72.257 45.661-95.586l68.406-55.261c25.472-20.577 40.276-51.567 40.276-84.312 0-32.173 15.174-62.463 40.943-81.727l8.384-6.267 20.935 67.135-17.746 1.956c5.71-1.28 11.649-1.956 17.746-1.956 44.626 0 80.802 36.176 80.802 80.802 0 8.919-1.466 17.49-4.135 25.512-14.641 4.813-30.28 7.426-46.532 7.426-23.568 0-45.854-5.477-65.66-15.227" fill="#ffad93"/><g fill="#ff926f"><circle cx="386.672" cy="157.004" r="10.477"/><path d="m506.456 271.589c-14.362-18.189-35.877-28.621-59.028-28.621s-44.666 10.432-59.028 28.621c-.718.909-1.36 1.854-1.941 2.823l-11.01-13.032c9.727-10.53 15.948-23.708 17.891-37.912 3.746.26 7.514.406 11.311.406 16.95 0 33.657-2.667 49.655-7.926 3.006-.988 5.367-3.341 6.365-6.343 3.083-9.267 4.646-18.913 4.646-28.669 0-47.559-36.754-86.69-83.348-90.494l-18.841-60.419c-.967-3.099-3.377-5.536-6.465-6.536-3.089-1-6.47-.439-9.07 1.504l-8.383 6.268c-28.15 21.043-44.956 54.589-44.956 89.736 0 21.904-7.174 42.741-20.159 59.702.947-6.553 1.434-13.203 1.434-19.934-.002-75.963-61.802-137.763-137.765-137.763s-137.764 61.8-137.764 137.763c0 18.142 3.687 36.056 10.956 53.245 1.612 3.812 5.404 6.224 9.542 6.099 4.137-.138 7.761-2.81 9.116-6.72 5.267-15.194 19.451-25.403 35.298-25.403 20.518 0 37.21 16.692 37.21 37.21 0 9.226-3.35 15.824-10.388 26.21-18.912 25.679-28.906 56.256-28.906 88.439 0 82.264 66.927 149.19 149.19 149.19h229.713c5.522 0 10-4.477 10-10 0-29.13-22.646-53.055-51.254-55.135 1.541-6.394 2.378-13.058 2.378-19.918 0-26.077-11.807-49.438-30.343-65.053h23.437c3.82 19.486 17.017 35.792 35.532 43.551l.086.164c3.107 5.91 9.185 9.581 15.862 9.581 6.676 0 12.753-3.672 15.858-9.582l.087-.166c22.093-9.286 36.665-30.977 36.665-55.208v-18.147c3.529-2.246 6.536-5.359 8.671-9.19 5.136-9.218 4.271-20.077-2.254-28.341zm-423.628 68.255c0-27.944 8.685-54.475 25.116-76.723.079-.107.155-.215.23-.325 7.35-10.83 13.947-21.854 13.947-37.601 0-31.546-25.664-57.21-57.21-57.21-16.238 0-31.331 6.939-41.975 18.448-1.952-8.458-2.936-17.039-2.936-25.67 0-64.935 52.828-117.763 117.764-117.763s117.764 52.829 117.764 117.764c0 16.018-3.153 31.505-9.359 46.076l-56.88 45.95c-31.38 25.35-49.377 63.025-49.377 103.365 0 47.337 24.885 88.965 62.256 112.508-66.653-5.051-119.34-60.897-119.34-128.819zm313.605 103.891c15.992 0 29.535 10.689 33.856 25.299h-57.777c8.333-7.019 15.3-15.603 20.45-25.299zm18.639-129.825c-1.115 3.002-4.016 5.019-7.218 5.019h-99.364c-5.522 0-10 4.477-10 10s4.478 10 10 10h9.312c35.87 0 65.053 29.183 65.053 65.053s-29.183 65.053-65.053 65.053h-45.012c-62.242 0-112.88-50.638-112.88-112.88 0-34.268 15.288-66.273 41.945-87.808l68.405-55.261c27.957-22.585 43.991-56.151 43.991-92.091 0-27.637 12.649-54.069 34.014-71.442l12.959 41.558c-2.232.328-4.45.73-6.644 1.222-5.389 1.208-8.778 6.556-7.57 11.945 1.208 5.39 6.561 8.779 11.945 7.571 5.072-1.137 10.308-1.713 15.559-1.713 39.04 0 70.801 31.762 70.801 70.802 0 5.931-.741 11.81-2.207 17.538-12.462 3.585-25.376 5.401-38.46 5.401-21.499 0-42.104-4.777-61.244-14.198-4.956-2.441-10.95-.399-13.388 4.555-2.439 4.955-.399 10.949 4.556 13.388 12.48 6.144 25.502 10.556 38.943 13.221-1.29 9.277-5.135 17.937-11.113 25.098l-3.604-4.266c-3.563-4.22-9.875-4.751-14.092-1.186-4.219 3.564-4.75 9.874-1.186 14.092l35.281 41.764c1.546 1.83 3.697 3.044 6.063 3.421l24.201 3.861c3.131.5 4.749 2.546 5.436 3.721.689 1.174 1.675 3.59.571 6.562zm64.968 13.359c0 17.063-10.849 32.234-26.994 37.752-2.419.827-4.429 2.548-5.618 4.81-1.189-2.262-3.199-3.983-5.618-4.81-12.813-4.378-22.257-14.702-25.634-27.386 7.997-2.541 14.632-8.651 17.645-16.761 1.174-3.161 1.741-6.453 1.733-9.728 3.961-.148 7.93-.231 11.875-.231 10.879 0 21.833.573 32.612 1.694v14.66zm11.199-37.074c-.558 1.001-2.222 3.29-5.617 2.899-12.593-1.446-25.443-2.179-38.194-2.179-6.684 0-13.432.213-20.104.612-4.066-4.027-9.31-6.727-15.105-7.652l-7.087-1.131c10.529-12.579 25.843-19.776 42.296-19.776 16.992 0 32.786 7.66 43.332 21.016 2.085 2.641 1.03 5.224.479 6.211z"/></g></g></svg>