<svg id="Capa_1" enable-background="new 0 0 512 512" height="512" viewBox="0 0 512 512" width="512" xmlns="http://www.w3.org/2000/svg"><g><path id="XMLID_326_" d="m352.235 156.927c24.395-7.898 41.099-29.231 43.983-53.521-12.709-17.173-33.457-27.148-55.229-25.918 7.508-25.116-1.083-51.436-20.111-67.488-24.858 1.357-47.565 17.197-56.695 41.77-16.642-14.092-39.213-18.622-59.7-12.564-12.324 21.13-11.833 48.219 2.887 69.215-21.422 7.496-37.021 25.717-41.591 47.351 13.301 21.836 38.985 34.5 65.72 29.926 15.23-2.606 28.265-10.385 37.652-21.214.974 14.298 6.696 28.358 17.286 39.61z" fill="#daf9e8"/><g><path d="m307.852 183.948c35.756-35.756 90.263-41.614 132.162-17.572 12.911 7.408 15.117 25.131 4.414 35.475-7.268 7.024-18.323 8.259-27.014 3.098-24.889-14.78-56.928-11.509-78.499 10.062z" fill="#f3fadb"/></g><g fill="#ff9eb2"><circle cx="74.294" cy="446.408" r="55.592"/><circle cx="161.15" cy="439.617" r="55.592"/><circle cx="87.817" cy="366.284" r="55.592"/><circle cx="247.516" cy="422.253" r="55.592"/><circle cx="174.183" cy="348.92" r="55.592"/><circle cx="105.181" cy="279.918" r="55.592"/><circle cx="362.485" cy="307.284" r="55.592"/><circle cx="220.15" cy="164.949" r="55.592"/><circle cx="289.152" cy="233.951" r="55.592"/><circle cx="328.734" cy="391.286" r="55.592"/><circle cx="271.75" cy="334.303" r="55.592"/><circle cx="198.417" cy="260.97" r="55.592"/><circle cx="129.416" cy="191.968" r="55.592"/></g><path d="m408.605 66.923c.045 1.417.177 2.847.42 4.284 1.409 8.356 5.989 15.664 12.896 20.576 5.431 3.863 11.789 5.88 18.321 5.88 1.774 0 4.366-.306 6.151-.607.542-.091-.531.118 0 0 36.76-7.092 62.22-42.54 55.957-79.649-.918-5.446-6.068-9.109-11.524-8.197-5.445.919-9.115 6.079-8.196 11.524 2.509 14.871-1.962 29.334-11.02 40.032-.006-.039-.01-.078-.017-.116-1.409-8.356-5.989-15.664-12.896-20.576-6.905-4.911-15.306-6.838-23.668-5.43-24.916 4.205-46.396 18.331-60.061 39.208-6.871-3.08-14.217-5.11-21.806-5.982 2.93-24.518-6.54-49.235-25.837-65.514-1.948-1.643-4.457-2.48-6.993-2.342-25.209 1.377-47.654 15.408-60.079 36.746-17.545-10.324-38.669-13.041-58.606-7.145-2.444.722-4.52 2.35-5.804 4.551-12.731 21.829-13.32 48.595-2.164 70.785-7.227 3.178-14 7.705-19.91 13.615-4.813 4.813-8.844 10.352-11.945 16.363-9.77-5.572-20.857-8.555-32.408-8.555-17.521 0-33.992 6.823-46.381 19.211s-19.211 28.86-19.211 46.381c0 11.18 2.789 21.926 8.019 31.463-4.719 2.787-9.088 6.152-13.043 10.105-21.655 21.655-24.967 54.807-9.949 79.987-2.613 1.934-5.094 4.058-7.415 6.379-21.055 21.055-24.759 52.974-11.146 77.871-.809.733-1.604 1.481-2.376 2.252-12.389 12.389-19.212 28.861-19.212 46.381s6.823 33.992 19.212 46.38c12.389 12.393 28.86 19.216 46.381 19.216s33.992-6.823 46.38-19.211c.293-.293.572-.599.859-.898 11.343 8.633 25.116 13.318 39.615 13.318 17.521 0 33.992-6.823 46.382-19.212 2.319-2.319 4.451-4.796 6.386-7.41 10.309 6.147 21.953 9.227 33.599 9.227 16.797 0 33.594-6.394 46.381-19.181 4.763-4.763 8.675-10.106 11.728-15.942 7.291 2.74 15.087 4.187 23.11 4.187 17.521 0 33.992-6.823 46.381-19.211 19.074-19.074 23.913-47.067 14.535-70.677 7.112-3.24 13.634-7.745 19.216-13.326 25.574-25.574 25.574-67.187 0-92.762-14.881-14.879-35.188-21.084-54.608-18.649 1.13-8.674.503-17.411-1.798-25.73 17.508-12.89 40.879-14.24 59.848-2.976 12.547 7.451 28.613 5.599 39.068-4.506 7.383-7.135 10.89-17.071 9.623-27.261-1.268-10.191-7.103-18.968-16.01-24.079-16.531-9.485-35.383-14.852-54.496-15.689 8.433-10.598 14-23.491 15.655-37.427.3-2.53-.377-5.08-1.893-7.128-3.615-4.885-7.767-9.227-12.32-13.007 4.554-6.856 10.197-12.76 16.669-17.527zm31.73-12.724c2.414 0 4.765.746 6.771 2.173 2.553 1.815 4.245 4.516 4.767 7.604 1.075 6.376-3.236 12.439-9.612 13.515-3.088.523-6.195-.191-8.748-2.007s-4.245-4.517-4.767-7.605c-1.075-6.376 3.236-12.438 9.612-13.514.66-.111 1.32-.166 1.977-.166zm-229.112-6.404c16.425-3.569 33.546.64 46.497 11.607 2.485 2.105 5.841 2.869 8.996 2.042 3.152-.826 5.705-3.136 6.84-6.19 7.052-18.98 24.004-32.333 43.854-34.899 14.303 14.002 19.796 34.87 13.997 54.27-.934 3.123-.287 6.504 1.732 9.062 2.02 2.557 5.158 3.972 8.412 3.787 16.945-.957 33.147 5.992 44.112 18.732-3.752 19.195-17.688 35.135-36.474 41.218l.002.016c-15.405 4.845-29.616 12.767-41.991 23.478-7.026-1.999-14.32-2.811-21.565-2.426.343-6.427-.265-12.835-1.769-19.022l35.703-18.771c4.889-2.57 6.768-8.616 4.198-13.505-2.57-4.888-8.616-6.767-13.505-4.197l-16.419 8.632 12.308-36.163c1.779-5.229-1.017-10.909-6.245-12.689-5.229-1.78-10.909 1.017-12.688 6.245l-15.47 45.452c-1.611-2.055-3.347-4.031-5.22-5.904-14.447-14.446-34.009-20.727-52.907-18.853-9.547-15.731-10.447-35.393-2.398-51.922zm41.165 84.916c10.595 10.594 15.217 25.679 12.622 40.266-8.104 3.195-15.698 8.052-22.24 14.594-4.813 4.813-8.844 10.351-11.944 16.362-9.77-5.572-20.857-8.555-32.408-8.555-1.174 0-2.343.036-3.506.097.922-17.362-5.088-34.577-17-47.658 2.282-5.617 5.677-10.782 10.001-15.105 17.774-17.778 46.7-17.778 64.475-.001zm51.601 169.354c8.611 8.611 13.354 20.06 13.354 32.238s-4.742 23.627-13.354 32.239-20.061 13.354-32.238 13.354c-12.179 0-23.628-4.742-32.239-13.354-12.567-12.566-16.628-30.846-10.78-47.382 5.849-3.056 11.268-7.009 16.067-11.809 4.799-4.799 8.751-10.216 11.807-16.063 16.534-5.845 34.828-1.781 47.383 10.777zm-162.045 79.094c-17.776-17.777-17.776-46.702-.001-64.478 3.354-3.353 7.125-6.099 11.245-8.234 12.25 11.684 28.241 18.115 45.229 18.115 2.771 0 5.512-.19 8.219-.527-1.899 14.63 1.21 29.437 8.892 42.106-2.234 4.817-5.278 9.187-9.109 13.017-17.774 17.778-46.699 17.776-64.475.001zm56.474-165.781c12.178 0 23.627 4.742 32.238 13.354 8.611 8.611 13.354 20.06 13.354 32.238s-4.742 23.627-13.354 32.238c-8.611 8.611-20.061 13.354-32.238 13.354s-23.627-4.742-32.238-13.354c-8.612-8.611-13.354-20.06-13.354-32.238s4.742-23.627 13.354-32.239c8.611-8.611 20.06-13.353 32.238-13.353zm-101.24-55.648c8.611-8.611 20.061-13.354 32.238-13.354s23.627 4.742 32.238 13.354c10.599 10.598 15.214 25.652 12.629 40.229-8.234 3.255-15.797 8.18-22.246 14.629s-11.375 14.012-14.63 22.247c-14.572 2.574-29.668-2.067-40.229-12.629-17.777-17.776-17.777-46.7 0-64.476zm-24.237 87.95c3.352-3.351 7.124-6.099 11.245-8.236 12.324 11.737 28.638 18.106 45.315 18.106 1.139 0 2.28-.038 3.421-.098-.061 1.167-.098 2.34-.098 3.518 0 11.18 2.79 21.927 8.02 31.465-4.716 2.785-9.087 6.148-13.043 10.104-6.542 6.542-11.399 14.137-14.594 22.24-14.582 2.589-29.693-2.05-40.265-12.622-17.776-17.777-17.776-46.701-.001-64.477zm-17.364 86.366c1.882-1.881 3.911-3.577 6.061-5.09 12.108 10.744 27.702 16.545 43.626 16.544 1.152 0 2.305-.039 3.459-.1-.892 16.739 4.583 33.75 16.42 47.065-1.512 2.149-3.208 4.177-5.087 6.057-8.611 8.612-20.061 13.354-32.239 13.354s-23.627-4.742-32.238-13.354c-17.777-17.775-17.777-46.7-.002-64.476zm18.718 157.954c-12.178 0-23.627-4.742-32.238-13.354-8.612-8.611-13.354-20.06-13.354-32.238s4.742-23.627 13.355-32.24c.156-.156.319-.303.477-.457 12.257 11.716 28.269 18.165 45.282 18.165 2.776 0 5.521-.191 8.233-.528-2.093 16.227 1.97 32.688 11.562 46.172-.355.38-.711.759-1.078 1.126-8.612 8.612-20.062 13.354-32.239 13.354zm86.854-6.79c-12.178 0-23.627-4.742-32.238-13.354-12.532-12.533-16.61-30.855-10.773-47.386 5.846-3.055 11.262-7.007 16.06-11.805 2.32-2.32 4.447-4.8 6.381-7.413 10.311 6.149 21.956 9.23 33.604 9.23 2.754 0 5.506-.189 8.242-.533-2.397 18.584 3.279 37.495 16.052 51.851-1.512 2.149-3.208 4.177-5.087 6.056-8.613 8.611-20.062 13.354-32.241 13.354zm118.605-30.719c-17.775 17.776-46.701 17.776-64.477 0-12.515-12.515-16.604-30.879-10.761-47.413 5.779-3.009 11.202-6.932 16.047-11.778 3.364-3.364 6.301-7.024 8.821-10.94 9.773 8.298 21.602 13.472 34.269 15.022 1.769 14.453 8.242 27.825 18.7 38.283 1.856 1.856 3.814 3.571 5.843 5.173-2.16 4.278-4.974 8.185-8.442 11.653zm81.218-30.966c-8.611 8.611-20.061 13.354-32.238 13.354s-23.627-4.742-32.238-13.354c-6.816-6.815-11.196-15.411-12.732-24.736 12.945-2.384 24.86-8.597 34.367-18.104 9.505-9.505 15.718-21.417 18.103-34.359 9.313 1.537 17.916 5.899 24.738 12.723 17.777 17.775 17.777 46.699 0 64.476zm33.751-148.48c17.776 17.777 17.776 46.702 0 64.478-4.394 4.395-9.624 7.821-15.332 10.103-1.338-1.624-2.759-3.202-4.276-4.72-10.475-10.475-23.834-16.939-38.284-18.703-1.647-13.448-7.367-25.959-16.583-36.059 2.282-5.614 5.676-10.778 9.998-15.099 17.776-17.777 46.701-17.774 64.477 0zm-78.62-14.142c-4.807 4.807-8.833 10.338-11.932 16.34-12.346-7.063-26.604-9.874-40.689-8.049.337-2.708.527-5.451.527-8.224 0-16.494-6.05-32.055-17.094-44.158 2.282-5.615 5.676-10.778 9.998-15.1 17.774-17.776 46.701-17.776 64.478 0 12.568 12.569 16.629 30.868 10.77 47.409-5.784 3.009-11.21 6.934-16.058 11.782zm125.049-76.655c.484 3.892-.854 7.688-3.675 10.412-3.988 3.857-10.142 4.552-14.957 1.691-24.753-14.7-54.971-13.728-78.478 1.661-2.44-3.702-5.274-7.207-8.51-10.443-2.608-2.608-5.391-4.936-8.299-7.012 13.756-9.922 29.737-16.113 46.898-18.047 21.047-2.373 42.678 2.081 60.905 12.539 3.403 1.953 5.633 5.306 6.116 9.199z" fill="#ff5d7f"/></g></svg>