<svg id="Capa_1" enable-background="new 0 0 512 512" height="512" viewBox="0 0 512 512" width="512" xmlns="http://www.w3.org/2000/svg"><g><path d="m157.16 307.717v158.818c0 19.587 15.878 35.465 35.465 35.465 19.587 0 35.465-15.878 35.465-35.465v-26.06c0-17.089 13.854-30.943 30.943-30.943 17.089 0 30.943 13.854 30.943 30.943v1.719c0 17.024 13.801 30.824 30.824 30.824 17.024 0 30.824-13.801 30.824-30.824v-133.03z" fill="#ffdb85"/><g fill="#fff3d6"><path d="m290.377 129.087h-68.754l-34.378 59.543 34.378 59.544h68.754l34.378-59.544z"/><path d="m290.377 248.174h-68.754l-34.378 59.543 34.378 59.543h68.754l34.378-59.543z"/><path d="m290.377 129.087h-68.754l-34.378-59.544 34.378-59.543h68.754l34.378 59.543z"/><path d="m393.508 188.63h-68.755l-34.378 59.544 34.378 59.543h68.755l34.377-59.543z"/><path d="m393.508 188.63h-68.755l-34.378-59.543 34.378-59.544h68.755l34.377 59.544z"/><path d="m118.492 188.63h68.755l34.378 59.544-34.378 59.543h-68.755l-34.377-59.543z"/><path d="m118.492 188.63h68.755l34.378-59.543-34.378-59.544h-68.755l-34.377 59.544z"/></g><path d="m386.405 130.933-12.039 20.852c-.659 1.142-1.878 1.846-3.197 1.846h-24.076c-1.319 0-2.537-.704-3.197-1.846l-12.039-20.851c-.659-1.142-.659-2.549 0-3.691l12.039-20.853c.659-1.142 1.878-1.846 3.197-1.846h24.075c1.319 0 2.537.704 3.197 1.846l12.039 20.853c.66 1.14.66 2.547.001 3.69zm-145.639 80.395-12.039-20.852c-.659-1.142-.659-2.549 0-3.691l12.039-20.852c.659-1.142 1.878-1.846 3.197-1.846h24.074c1.319 0 2.537.704 3.197 1.846l12.039 20.852c.659 1.142.659 2.549 0 3.691l-12.039 20.852c-.659 1.142-1.878 1.846-3.197 1.846h-24.074c-1.319 0-2.537-.704-3.197-1.846zm30.47-164.482 12.038 20.85c.659 1.142.659 2.549 0 3.691l-12.04 20.854c-.659 1.142-1.878 1.846-3.197 1.846h-24.074c-1.319 0-2.537-.704-3.197-1.846l-12.04-20.854c-.659-1.142-.659-2.549 0-3.691l12.038-20.85c.659-1.142 1.878-1.846 3.197-1.846h24.078c1.319 0 2.538.704 3.197 1.846zm-130.405 57.697h24.075c1.319 0 2.537.704 3.197 1.846l12.039 20.853c.659 1.142.659 2.549 0 3.691l-12.039 20.851c-.659 1.142-1.878 1.846-3.197 1.846h-24.076c-1.319 0-2.537-.704-3.197-1.846l-12.039-20.852c-.659-1.142-.659-2.549 0-3.691l12.039-20.853c.661-1.141 1.88-1.845 3.198-1.845zm-15.236 141.785 12.039-20.853c.659-1.142 1.878-1.846 3.197-1.846h24.075c1.319 0 2.537.704 3.197 1.846l12.039 20.853c.659 1.142.659 2.549 0 3.691l-12.039 20.851c-.659 1.142-1.878 1.846-3.197 1.846h-24.076c-1.319 0-2.537-.704-3.197-1.846l-12.039-20.852c-.658-1.141-.658-2.548.001-3.69zm115.169 84.087-12.038-20.851c-.659-1.142-.659-2.549 0-3.691l12.04-20.854c.659-1.142 1.878-1.846 3.197-1.846h24.074c1.319 0 2.537.704 3.197 1.846l12.04 20.854c.659 1.142.659 2.549 0 3.691l-12.038 20.851c-.659 1.142-1.878 1.846-3.197 1.846h-24.077c-1.319 0-2.538-.704-3.198-1.846zm130.405-57.698h-24.076c-1.319 0-2.537-.704-3.197-1.846l-12.039-20.851c-.659-1.142-.659-2.549 0-3.691l12.039-20.853c.659-1.142 1.878-1.846 3.197-1.846h24.075c1.319 0 2.537.704 3.197 1.846l12.039 20.853c.659 1.142.659 2.549 0 3.691l-12.039 20.852c-.658 1.141-1.877 1.845-3.196 1.845z" fill="#ffdb85"/><path d="m405.054 188.63 31.491-54.543c1.787-3.094 1.787-6.906 0-10l-34.377-59.544c-1.786-3.094-5.087-5-8.66-5h-62.979l-31.491-54.543c-1.786-3.094-5.087-5-8.66-5h-68.755c-3.573 0-6.874 1.906-8.66 5l-31.491 54.543h-62.979c-3.573 0-6.874 1.906-8.66 5l-34.377 59.544c-1.787 3.094-1.787 6.906 0 10l31.491 54.543-31.491 54.544c-1.787 3.094-1.787 6.906 0 10l34.377 59.543c1.786 3.094 5.087 5 8.66 5h28.668v148.818c0 25.069 20.395 45.465 45.464 45.465s45.465-20.396 45.465-45.465v-26.06c0-11.548 9.395-20.943 20.943-20.943s20.943 9.396 20.943 20.943v1.719c0 22.511 18.313 40.825 40.824 40.825s40.825-18.314 40.825-40.825v-124.477h31.883c3.573 0 6.874-1.906 8.66-5l34.377-59.543c1.787-3.094 1.787-6.906 0-10zm11.284-59.543-28.604 49.543h-57.206l-28.604-49.543 28.604-49.544h57.206zm-131.736 10 28.604 49.543-28.604 49.544h-57.204l-28.604-49.544 28.604-49.543zm-57.204 119.087h57.204l28.605 49.545-28.603 49.542h-57.208l-28.603-49.542zm-.002-238.174h57.208l28.603 49.541-28.605 49.546h-57.204l-28.605-49.546zm-103.13 59.543h57.206l28.604 49.544-28.604 49.543h-57.206l-28.604-49.543zm-28.604 168.631 28.604-49.544h57.206l28.604 49.544-28.604 49.543h-57.206zm245.963 194.02c0 11.483-9.342 20.825-20.825 20.825-11.482 0-20.824-9.342-20.824-20.825v-1.719c0-22.576-18.367-40.943-40.943-40.943s-40.943 18.367-40.943 40.943v26.06c0 14.041-11.423 25.465-25.465 25.465-14.041 0-25.464-11.424-25.464-25.465v-148.818h14.311l31.491 54.544c1.786 3.094 5.087 5 8.66 5h68.755c3.573 0 6.874-1.906 8.66-5l31.491-54.544h11.096zm46.109-144.477h-57.206l-28.604-49.543 28.604-49.544h57.206l28.604 49.544z" fill="#ffaa64"/></g></svg>